<?xml version="1.0" encoding="UTF-8"?>
<!DOCTYPE svg PUBLIC "-//W3C//DTD SVG 1.1//EN" "http://www.w3.org/Graphics/SVG/1.1/DTD/svg11.dtd">
<svg xmlns="http://www.w3.org/2000/svg" version="1.1" width="662px" height="191px" style="shape-rendering:geometricPrecision; text-rendering:geometricPrecision; image-rendering:optimizeQuality; fill-rule:evenodd; clip-rule:evenodd" xmlns:xlink="http://www.w3.org/1999/xlink">
<g><path style="opacity:0.325" fill="#ffb3b4" d="M 170.5,26.5 C 188.329,25.338 206.329,25.1713 224.5,26C 227.036,26.1862 229.369,26.6862 231.5,27.5C 211.85,26.6049 192.183,26.2716 172.5,26.5C 171.833,26.5 171.167,26.5 170.5,26.5 Z"/></g>
<g><path style="opacity:0.065" fill="#fdcaca" d="M 344.5,26.5 C 333.986,26.1724 323.653,26.5058 313.5,27.5C 310.167,27.5 306.833,27.5 303.5,27.5C 303.5,28.5 303.5,29.5 303.5,30.5C 301.824,29.8166 301.157,28.4832 301.5,26.5C 315.994,25.3857 330.328,25.3857 344.5,26.5 Z"/></g>
<g><path style="opacity:0.124" fill="#ffc6c4" d="M 515.5,26.5 C 498.5,26.5 481.5,26.5 464.5,26.5C 464.5,27.5 464.5,28.5 464.5,29.5C 463.566,28.4324 463.232,27.099 463.5,25.5C 481.008,25.17 498.341,25.5033 515.5,26.5 Z"/></g>
<g><path style="opacity:0.101" fill="#fecfcc" d="M 579.5,26.5 C 568.5,26.5 557.5,26.5 546.5,26.5C 546.5,27.5 546.5,28.5 546.5,29.5C 544.557,28.9217 544.223,27.9217 545.5,26.5C 556.993,25.176 568.326,25.176 579.5,26.5 Z"/></g>
<g><path style="opacity:0.125" fill="#ffbfbe" d="M 649.5,29.5 C 649.5,28.5 649.5,27.5 649.5,26.5C 636.5,26.5 623.5,26.5 610.5,26.5C 610.5,27.5 610.5,28.5 610.5,29.5C 609.566,28.4324 609.232,27.099 609.5,25.5C 623.167,25.5 636.833,25.5 650.5,25.5C 650.768,27.099 650.434,28.4324 649.5,29.5 Z"/></g>
<g><path style="opacity:1" fill="#e77771" d="M 89.5,33.5 C 89.281,32.325 89.6143,31.325 90.5,30.5C 92.2251,29.9851 93.8917,29.3184 95.5,28.5C 82.5171,27.5009 69.5171,27.1675 56.5,27.5C 56.5,27.1667 56.5,26.8333 56.5,26.5C 69.9938,25.3395 83.6604,25.1728 97.5,26C 98.727,27.5874 98.3937,28.9207 96.5,30C 94.1401,31.1799 91.8068,32.3466 89.5,33.5 Z"/></g>
<g><path style="opacity:0.647" fill="#f07f80" d="M 313.5,27.5 C 323.653,26.5058 333.986,26.1724 344.5,26.5C 345.833,26.5 346.5,27.1667 346.5,28.5C 335.581,27.5234 324.581,27.1901 313.5,27.5 Z"/></g>
<g><path style="opacity:0.317" fill="#fcb0af" d="M 393.5,27.5 C 407.323,26.5042 421.323,26.1709 435.5,26.5C 435.631,29.3667 434.297,31.0334 431.5,31.5C 431.5,31.1667 431.5,30.8333 431.5,30.5C 432.478,30.189 433.145,29.5223 433.5,28.5C 420.183,27.5008 406.85,27.1675 393.5,27.5 Z"/></g>
<g><path style="opacity:1" fill="#d7514d" d="M 515.5,26.5 C 516.885,27.9473 516.552,28.9473 514.5,29.5C 514.167,29.5 513.833,29.5 513.5,29.5C 506.197,28.1691 498.53,27.5024 490.5,27.5C 482.833,27.8333 475.167,28.1667 467.5,28.5C 468.193,29.5178 468.859,30.5178 469.5,31.5C 467.597,31.2041 465.93,30.5375 464.5,29.5C 464.5,28.5 464.5,27.5 464.5,26.5C 481.5,26.5 498.5,26.5 515.5,26.5 Z"/></g>
<g><path style="opacity:0.937" fill="#d65a57" d="M 579.5,26.5 C 579.5,26.8333 579.5,27.1667 579.5,27.5C 568.813,27.168 558.146,27.5013 547.5,28.5C 547.863,29.1835 548.196,29.8501 548.5,30.5C 547.508,30.6716 546.842,30.3382 546.5,29.5C 546.5,28.5 546.5,27.5 546.5,26.5C 557.5,26.5 568.5,26.5 579.5,26.5 Z"/></g>
<g><path style="opacity:0.998" fill="#dc514f" d="M 649.5,29.5 C 648.71,30.4013 647.71,31.0679 646.5,31.5C 646.67,30.1779 646.337,29.0113 645.5,28C 634.5,27.3333 623.5,27.3333 612.5,28C 613.71,29.0391 614.71,30.2058 615.5,31.5C 613.597,31.2041 611.93,30.5375 610.5,29.5C 610.5,28.5 610.5,27.5 610.5,26.5C 623.5,26.5 636.5,26.5 649.5,26.5C 649.5,27.5 649.5,28.5 649.5,29.5 Z"/></g>
<g><path style="opacity:1" fill="#e7827a" d="M 170.5,26.5 C 171.167,26.5 171.833,26.5 172.5,26.5C 172.5,26.8333 172.5,27.1667 172.5,27.5C 173.789,28.6366 174.789,29.9699 175.5,31.5C 173.742,31.1231 172.075,30.4565 170.5,29.5C 169.224,28.3864 169.224,27.3864 170.5,26.5 Z"/></g>
<g><path style="opacity:0.016" fill="#febfbf" d="M 231.5,27.5 C 234.152,27.4095 236.485,28.0762 238.5,29.5C 235.848,29.5905 233.515,28.9238 231.5,27.5 Z"/></g>
<g><path style="opacity:1" fill="#ed3a3b" d="M 579.5,27.5 C 580.5,29.1667 581.833,30.5 583.5,31.5C 583.5,32.1667 583.5,32.8333 583.5,33.5C 581.535,31.5121 579.202,30.0121 576.5,29C 572.167,28.8333 567.833,28.6667 563.5,28.5C 558.778,28.5079 554.445,29.1745 550.5,30.5C 549.833,30.5 549.167,30.5 548.5,30.5C 548.196,29.8501 547.863,29.1835 547.5,28.5C 558.146,27.5013 568.813,27.168 579.5,27.5 Z"/></g>
<g><path style="opacity:1" fill="#fd3231" d="M 172.5,27.5 C 185.85,27.1675 199.183,27.5008 212.5,28.5C 211.388,29.2652 210.721,30.2652 210.5,31.5C 210.5,31.8333 210.5,32.1667 210.5,32.5C 209.778,32.9175 209.278,33.5842 209,34.5C 208.169,67.3359 208.336,100.003 209.5,132.5C 209.5,132.833 209.5,133.167 209.5,133.5C 209.536,137.2 211.203,139.867 214.5,141.5C 208.872,142.829 202.872,143.496 196.5,143.5C 190.5,143.333 184.5,143.167 178.5,143C 177.692,142.692 177.025,142.192 176.5,141.5C 177.867,140.16 179.2,138.827 180.5,137.5C 181.833,120.513 182.5,103.18 182.5,85.5C 182.333,68.1667 182.167,50.8333 182,33.5C 180.599,31.8078 178.766,31.1412 176.5,31.5C 176.167,31.5 175.833,31.5 175.5,31.5C 174.789,29.9699 173.789,28.6366 172.5,27.5 Z"/></g>
<g><path style="opacity:0.494" fill="#fdb5b4" d="M 579.5,26.5 C 581.587,27.5846 582.92,29.2512 583.5,31.5C 581.833,30.5 580.5,29.1667 579.5,27.5C 579.5,27.1667 579.5,26.8333 579.5,26.5 Z"/></g>
<g><path style="opacity:1" fill="#f27b74" d="M 223.5,30.5 C 226.939,30.6035 229.272,32.2702 230.5,35.5C 227.996,34.4161 225.663,33.0828 223.5,31.5C 223.5,31.1667 223.5,30.8333 223.5,30.5 Z"/></g>
<g><path style="opacity:0.725" fill="#ef9997" d="M 238.5,29.5 C 240.786,29.595 242.786,30.2616 244.5,31.5C 244.167,31.5 243.833,31.5 243.5,31.5C 241.302,31.8799 239.635,31.2132 238.5,29.5 Z"/></g>
<g><path style="opacity:0.988" fill="#ef928c" d="M 303.5,30.5 C 304.5,30.5 305.5,30.5 306.5,30.5C 308.23,31.0256 309.564,32.0256 310.5,33.5C 307.843,33.0652 305.509,32.0652 303.5,30.5 Z"/></g>
<g><path style="opacity:1" fill="#f2776e" d="M 431.5,30.5 C 431.5,30.8333 431.5,31.1667 431.5,31.5C 430.07,32.5375 428.403,33.2041 426.5,33.5C 427.344,31.2407 429.011,30.2407 431.5,30.5 Z"/></g>
<g><path style="opacity:0.051" fill="#fab5b3" d="M 513.5,29.5 C 513.833,29.5 514.167,29.5 514.5,29.5C 513.486,30.6737 512.153,31.3404 510.5,31.5C 510.5,31.1667 510.5,30.8333 510.5,30.5C 511.391,29.8902 512.391,29.5569 513.5,29.5 Z"/></g>
<g><path style="opacity:1" fill="#fb3835" d="M 646.5,31.5 C 646.34,33.153 645.674,34.4863 644.5,35.5C 643.655,36.6715 642.989,38.0048 642.5,39.5C 641.778,39.9175 641.278,40.5842 641,41.5C 640.108,48.4756 639.608,55.4756 639.5,62.5C 639.5,64.8333 639.5,67.1667 639.5,69.5C 638.832,76.0479 637.999,82.7146 637,89.5C 636.827,83.6518 636.327,77.9851 635.5,72.5C 634.697,66.8041 633.697,61.1374 632.5,55.5C 631.549,54.0813 631.216,52.4147 631.5,50.5C 631.829,47.7718 631.163,45.4385 629.5,43.5C 628.662,43.1583 628.328,42.4916 628.5,41.5C 628.446,39.368 627.446,38.0347 625.5,37.5C 624.738,35.7376 623.404,34.7376 621.5,34.5C 620.508,34.6716 619.842,34.3382 619.5,33.5C 618.817,31.8235 617.483,31.1568 615.5,31.5C 614.71,30.2058 613.71,29.0391 612.5,28C 623.5,27.3333 634.5,27.3333 645.5,28C 646.337,29.0113 646.67,30.1779 646.5,31.5 Z"/></g>
<g><path style="opacity:1" fill="#f23c3b" d="M 172.5,27.5 C 172.5,27.1667 172.5,26.8333 172.5,26.5C 192.183,26.2716 211.85,26.6049 231.5,27.5C 233.515,28.9238 235.848,29.5905 238.5,29.5C 239.635,31.2132 241.302,31.8799 243.5,31.5C 244.833,32.8333 246.167,34.1667 247.5,35.5C 244.735,35.7976 242.235,36.7976 240,38.5C 238.986,33.3327 237.82,33.3327 236.5,38.5C 235.833,38.5 235.167,38.5 234.5,38.5C 233.833,38.5 233.167,38.5 232.5,38.5C 231.833,37.5 231.167,36.5 230.5,35.5C 229.272,32.2702 226.939,30.6035 223.5,30.5C 220.693,29.3433 218.026,29.3433 215.5,30.5C 215.158,31.3382 214.492,31.6716 213.5,31.5C 212.5,31.5 211.5,31.5 210.5,31.5C 210.721,30.2652 211.388,29.2652 212.5,28.5C 199.183,27.5008 185.85,27.1675 172.5,27.5 Z"/></g>
<g><path style="opacity:0.278" fill="#fcb4ab" d="M 215.5,30.5 C 218.026,29.3433 220.693,29.3433 223.5,30.5C 223.5,30.8333 223.5,31.1667 223.5,31.5C 220.873,30.9084 218.206,30.5751 215.5,30.5 Z"/></g>
<g><path style="opacity:1" fill="#fd3332" d="M 431.5,30.5 C 429.011,30.2407 427.344,31.2407 426.5,33.5C 425.167,33.5 423.833,33.5 422.5,33.5C 422.168,68.3373 422.502,103.004 423.5,137.5C 423.833,137.5 424.167,137.5 424.5,137.5C 426.513,139.365 428.846,141.032 431.5,142.5C 416.178,143.666 400.844,143.833 385.5,143C 386.056,142.617 386.389,142.117 386.5,141.5C 389.132,140.528 391.465,139.195 393.5,137.5C 395.492,107.852 396.159,77.8519 395.5,47.5C 395.146,45.4588 395.146,43.6255 395.5,42C 394.707,40.9148 394.04,39.7481 393.5,38.5C 394.417,35.2423 394.751,31.909 394.5,28.5C 407.212,27.8536 419.545,28.5203 431.5,30.5 Z"/></g>
<g><path style="opacity:0.957" fill="#f09496" d="M 469.5,31.5 C 471.483,31.1568 472.817,31.8235 473.5,33.5C 471.847,33.3404 470.514,32.6737 469.5,31.5 Z"/></g>
<g><path style="opacity:1" fill="#fe3231" d="M 513.5,29.5 C 512.391,29.5569 511.391,29.8902 510.5,30.5C 507.579,30.1459 505.246,31.1459 503.5,33.5C 502.17,68.331 502.17,102.998 503.5,137.5C 504.708,138.234 506.041,138.567 507.5,138.5C 509.553,138.402 511.22,139.069 512.5,140.5C 512.804,141.15 513.137,141.817 513.5,142.5C 509.217,143.492 504.884,143.826 500.5,143.5C 490.341,142.67 480.008,142.17 469.5,142C 472.984,141.083 476.317,139.75 479.5,138C 478.773,136.601 478.273,135.101 478,133.5C 477.832,99.9975 477.332,66.6642 476.5,33.5C 475.833,33.5 475.167,33.5 474.5,33.5C 474.167,33.5 473.833,33.5 473.5,33.5C 472.817,31.8235 471.483,31.1568 469.5,31.5C 468.859,30.5178 468.193,29.5178 467.5,28.5C 475.167,28.1667 482.833,27.8333 490.5,27.5C 498.53,27.5024 506.197,28.1691 513.5,29.5 Z"/></g>
<g><path style="opacity:1" fill="#ef6260" d="M 548.5,30.5 C 549.167,30.5 549.833,30.5 550.5,30.5C 553.105,30.6206 555.105,31.6206 556.5,33.5C 555.833,33.5 555.167,33.5 554.5,33.5C 552.181,33.0075 550.181,32.0075 548.5,30.5 Z"/></g>
<g><path style="opacity:1" fill="#f18783" d="M 615.5,31.5 C 617.483,31.1568 618.817,31.8235 619.5,33.5C 617.847,33.3404 616.514,32.6737 615.5,31.5 Z"/></g>
<g><path style="opacity:0.522" fill="#fcaba5" d="M 56.5,26.5 C 56.5,26.8333 56.5,27.1667 56.5,27.5C 56.5,28.5 56.5,29.5 56.5,30.5C 55.8333,31.5 55.1667,32.5 54.5,33.5C 54.4095,30.8478 55.0762,28.5145 56.5,26.5 Z"/></g>
<g><path style="opacity:0.957" fill="#f58482" d="M 346.5,29.5 C 348.065,31.5093 349.065,33.8427 349.5,36.5C 347.166,34.8243 346.166,32.491 346.5,29.5 Z"/></g>
<g><path style="opacity:0.725" fill="#f8a099" d="M 583.5,31.5 C 585.262,32.2623 586.262,33.5956 586.5,35.5C 585.5,34.8333 584.5,34.1667 583.5,33.5C 583.5,32.8333 583.5,32.1667 583.5,31.5 Z"/></g>
<g><path style="opacity:0.365" fill="#f9abaa" d="M 393.5,27.5 C 393.59,30.1522 392.924,32.4855 391.5,34.5C 391.171,31.7718 391.837,29.4385 393.5,27.5 Z"/></g>
<g><path style="opacity:0.165" fill="#fac3bb" d="M 248.5,33.5 C 250.027,33.427 251.027,34.0937 251.5,35.5C 249.973,35.573 248.973,34.9063 248.5,33.5 Z"/></g>
<g><path style="opacity:0.667" fill="#feabab" d="M 621.5,34.5 C 623.404,34.7376 624.738,35.7376 625.5,37.5C 623.596,37.2624 622.262,36.2624 621.5,34.5 Z"/></g>
<g><path style="opacity:0.063" fill="#ffc1c0" d="M 58.5,39.5 C 57.8826,39.3893 57.3826,39.056 57,38.5C 56.7679,39.7375 56.2679,40.7375 55.5,41.5C 55.1159,39.3352 55.7826,37.6685 57.5,36.5C 58.3857,37.325 58.719,38.325 58.5,39.5 Z"/></g>
<g><path style="opacity:0.029" fill="#ffdada" d="M 424.5,34.5 C 424.174,68.9064 424.507,103.24 425.5,137.5C 425.167,137.5 424.833,137.5 424.5,137.5C 424.167,137.5 423.833,137.5 423.5,137.5C 423.168,102.996 423.502,68.6626 424.5,34.5 Z"/></g>
<g><path style="opacity:0.165" fill="#fdc1bf" d="M 644.5,35.5 C 641.997,53.2216 640.33,70.8883 639.5,88.5C 639.5,82.1667 639.5,75.8333 639.5,69.5C 639.5,67.1667 639.5,64.8333 639.5,62.5C 640.688,54.9906 641.688,47.324 642.5,39.5C 642.989,38.0048 643.655,36.6715 644.5,35.5 Z"/></g>
<g><path style="opacity:0.925" fill="#f69188" d="M 88.5,33.5 C 88.6287,35.2161 88.962,36.8828 89.5,38.5C 89.1667,38.5 88.8333,38.5 88.5,38.5C 87.1667,36.8333 87.1667,35.1667 88.5,33.5 Z"/></g>
<g><path style="opacity:0.714" fill="#f69f98" d="M 586.5,35.5 C 588.587,36.5846 589.92,38.2512 590.5,40.5C 588.413,39.4154 587.08,37.7488 586.5,35.5 Z"/></g>
<g><path style="opacity:0.592" fill="#f7aea1" d="M 232.5,38.5 C 233.167,38.5 233.833,38.5 234.5,38.5C 235.11,39.391 235.443,40.391 235.5,41.5C 234.167,40.8333 233.167,39.8333 232.5,38.5 Z"/></g>
<g><path style="opacity:1" fill="#f58279" d="M 234.5,38.5 C 235.167,38.5 235.833,38.5 236.5,38.5C 238.376,41.9209 239.376,45.5876 239.5,49.5C 237.659,47.1515 236.326,44.4848 235.5,41.5C 235.443,40.391 235.11,39.391 234.5,38.5 Z"/></g>
<g><path style="opacity:1" fill="#f23739" d="M 313.5,27.5 C 324.581,27.1901 335.581,27.5234 346.5,28.5C 346.5,28.8333 346.5,29.1667 346.5,29.5C 346.166,32.491 347.166,34.8243 349.5,36.5C 349.198,40.3799 350.531,43.3799 353.5,45.5C 353.166,48.491 354.166,50.8243 356.5,52.5C 356.166,55.491 357.166,57.8243 359.5,59.5C 359.5,60.8333 359.5,62.1667 359.5,63.5C 356.119,61.1728 354.286,57.8394 354,53.5C 352.283,54.3881 351.116,53.7214 350.5,51.5C 350.529,49.9707 351.196,48.804 352.5,48C 350.895,46.6397 349.395,45.1397 348,43.5C 347.182,38.8788 345.682,34.5455 343.5,30.5C 335.752,29.0073 327.919,28.3407 320,28.5C 314.833,28.6667 309.667,28.8333 304.5,29C 305.416,29.2784 306.082,29.7784 306.5,30.5C 305.5,30.5 304.5,30.5 303.5,30.5C 303.5,29.5 303.5,28.5 303.5,27.5C 306.833,27.5 310.167,27.5 313.5,27.5 Z"/></g>
<g><path style="opacity:0.471" fill="#f4a6a4" d="M 54.5,33.5 C 54.196,36.5219 53.696,39.5219 53,42.5C 52.6174,43.056 52.1174,43.3893 51.5,43.5C 51.8993,39.8835 52.8993,36.5502 54.5,33.5 Z"/></g>
<g><path style="opacity:1" fill="#ef7269" d="M 243.5,31.5 C 243.833,31.5 244.167,31.5 244.5,31.5C 246.153,31.6596 247.486,32.3263 248.5,33.5C 248.973,34.9063 249.973,35.573 251.5,35.5C 257.113,38.1129 261.446,42.1129 264.5,47.5C 260.202,43.9154 255.869,40.4154 251.5,37C 250.099,36.5899 248.766,36.0899 247.5,35.5C 246.167,34.1667 244.833,32.8333 243.5,31.5 Z"/></g>
<g><path style="opacity:0.655" fill="#f49a89" d="M 625.5,37.5 C 627.446,38.0347 628.446,39.368 628.5,41.5C 627.026,40.5637 626.026,39.2303 625.5,37.5 Z"/></g>
<g><path style="opacity:0.627" fill="#f99c9b" d="M 58.5,39.5 C 59.1667,39.8333 59.8333,40.1667 60.5,40.5C 60.9926,42.8056 61.3259,45.139 61.5,47.5C 60.129,45.064 59.129,42.3973 58.5,39.5 Z"/></g>
<g><path style="opacity:0.655" fill="#f5b5b2" d="M 89.5,38.5 C 90.5375,39.9303 91.2041,41.597 91.5,43.5C 89.7868,42.3646 89.1201,40.698 89.5,38.5 Z"/></g>
<g><path style="opacity:0.907" fill="#e55050" d="M 426.5,33.5 C 426.158,34.3382 425.492,34.6716 424.5,34.5C 423.502,68.6626 423.168,102.996 423.5,137.5C 422.502,103.004 422.168,68.3373 422.5,33.5C 423.833,33.5 425.167,33.5 426.5,33.5 Z"/></g>
<g><path style="opacity:0.835" fill="#faa29c" d="M 590.5,40.5 C 592.587,41.5846 593.92,43.2512 594.5,45.5C 592.413,44.4154 591.08,42.7488 590.5,40.5 Z"/></g>
<g><path style="opacity:0.231" fill="#ffaeab" d="M 310.5,33.5 C 311.167,33.5 311.833,33.5 312.5,33.5C 312.5,43.5 312.5,53.5 312.5,63.5C 312.5,63.8333 312.5,64.1667 312.5,64.5C 312.167,64.5 311.833,64.5 311.5,64.5C 311.808,54.0846 311.475,43.7513 310.5,33.5 Z"/></g>
<g><path style="opacity:1" fill="#f57b76" d="M 317.5,42.5 C 319.256,43.5521 319.923,45.2188 319.5,47.5C 318.326,46.4863 317.66,45.153 317.5,43.5C 317.5,43.1667 317.5,42.8333 317.5,42.5 Z"/></g>
<g><path style="opacity:0.328" fill="#ffa6a5" d="M 474.5,33.5 C 475.167,33.5 475.833,33.5 476.5,33.5C 477.16,68.5161 476.493,103.183 474.5,137.5C 475.833,102.833 475.833,68.1667 474.5,33.5 Z"/></g>
<g><path style="opacity:1" fill="#e44947" d="M 642.5,39.5 C 641.688,47.324 640.688,54.9906 639.5,62.5C 639.608,55.4756 640.108,48.4756 641,41.5C 641.278,40.5842 641.778,39.9175 642.5,39.5 Z"/></g>
<g><path style="opacity:1" fill="#f2726d" d="M 349.5,36.5 C 351.592,39.0884 352.925,42.0884 353.5,45.5C 350.531,43.3799 349.198,40.3799 349.5,36.5 Z"/></g>
<g><path style="opacity:0.043" fill="#fcc5b9" d="M 55.5,41.5 C 55.4349,44.4282 54.7682,47.0948 53.5,49.5C 53.2938,46.5049 53.9605,43.8383 55.5,41.5 Z"/></g>
<g><path style="opacity:1" fill="#f14744" d="M 393.5,27.5 C 406.85,27.1675 420.183,27.5008 433.5,28.5C 433.145,29.5223 432.478,30.189 431.5,30.5C 419.545,28.5203 407.212,27.8536 394.5,28.5C 394.751,31.909 394.417,35.2423 393.5,38.5C 394.04,39.7481 394.707,40.9148 395.5,42C 395.146,43.6255 395.146,45.4588 395.5,47.5C 395.167,47.5 394.833,47.5 394.5,47.5C 393.221,46.2848 392.221,46.6182 391.5,48.5C 390.732,49.2625 390.232,50.2625 390,51.5C 389.503,48.854 389.336,46.1873 389.5,43.5C 389.676,40.2727 390.343,37.2727 391.5,34.5C 392.924,32.4855 393.59,30.1522 393.5,27.5 Z"/></g>
<g><path style="opacity:0.353" fill="#fda5a0" d="M 210.5,31.5 C 211.5,31.5 212.5,31.5 213.5,31.5C 212.406,33.3594 211.573,35.3594 211,37.5C 210.195,70.5229 210.362,103.523 211.5,136.5C 210.833,135.5 210.167,134.5 209.5,133.5C 209.5,133.167 209.5,132.833 209.5,132.5C 209.188,99.1356 209.521,65.8023 210.5,32.5C 210.5,32.1667 210.5,31.8333 210.5,31.5 Z"/></g>
<g><path style="opacity:0.009" fill="#ffebe7" d="M 317.5,41.5 C 317.5,41.8333 317.5,42.1667 317.5,42.5C 317.5,42.8333 317.5,43.1667 317.5,43.5C 316.833,51.8333 316.167,60.1667 315.5,68.5C 315.334,59.1607 315.5,49.8274 316,40.5C 316.383,41.056 316.883,41.3893 317.5,41.5 Z"/></g>
<g><path style="opacity:0.765" fill="#faa59f" d="M 594.5,45.5 C 596.262,46.2623 597.262,47.5956 597.5,49.5C 595.738,48.7377 594.738,47.4044 594.5,45.5 Z"/></g>
<g><path style="opacity:0.384" fill="#fab3af" d="M 629.5,43.5 C 631.163,45.4385 631.829,47.7718 631.5,50.5C 630.388,48.4006 629.721,46.0673 629.5,43.5 Z"/></g>
<g><path style="opacity:0.635" fill="#fbb6b1" d="M 51.5,43.5 C 50.9474,48.8065 49.6141,53.8065 47.5,58.5C 48.0756,53.1906 49.409,48.1906 51.5,43.5 Z"/></g>
<g><path style="opacity:0.929" fill="#f4908e" d="M 91.5,44.5 C 93.0652,46.5093 94.0652,48.8427 94.5,51.5C 92.1663,49.8243 91.1663,47.491 91.5,44.5 Z"/></g>
<g><path style="opacity:0.391" fill="#fe9c9c" d="M 176.5,31.5 C 178.766,31.1412 180.599,31.8078 182,33.5C 182.167,50.8333 182.333,68.1667 182.5,85.5C 182.5,103.18 181.833,120.513 180.5,137.5C 181.659,103.238 181.826,68.9048 181,34.5C 179.348,33.6006 177.848,32.6006 176.5,31.5 Z"/></g>
<g><path style="opacity:0.998" fill="#e33c3b" d="M 210.5,32.5 C 209.521,65.8023 209.188,99.1356 209.5,132.5C 208.336,100.003 208.169,67.3359 209,34.5C 209.278,33.5842 209.778,32.9175 210.5,32.5 Z"/></g>
<g><path style="opacity:1" fill="#e7514e" d="M 312.5,33.5 C 313.461,35.2646 313.795,37.2646 313.5,39.5C 315.483,39.1568 316.817,39.8235 317.5,41.5C 316.883,41.3893 316.383,41.056 316,40.5C 315.5,49.8274 315.334,59.1607 315.5,68.5C 315.5,68.8333 315.5,69.1667 315.5,69.5C 315.5,74.1667 315.5,78.8333 315.5,83.5C 314.671,75.3434 314.171,67.0101 314,58.5C 313.802,60.3817 313.302,62.0484 312.5,63.5C 312.5,53.5 312.5,43.5 312.5,33.5 Z"/></g>
<g><path style="opacity:0.998" fill="#e34645" d="M 510.5,30.5 C 510.5,30.8333 510.5,31.1667 510.5,31.5C 508.75,32.8698 506.75,33.8698 504.5,34.5C 503.502,68.6626 503.168,102.996 503.5,137.5C 502.17,102.998 502.17,68.331 503.5,33.5C 505.246,31.1459 507.579,30.1459 510.5,30.5 Z"/></g>
<g><path style="opacity:1" fill="#e94f4e" d="M 88.5,38.5 C 88.8333,38.5 89.1667,38.5 89.5,38.5C 89.1201,40.698 89.7868,42.3646 91.5,43.5C 91.5,43.8333 91.5,44.1667 91.5,44.5C 91.1663,47.491 92.1663,49.8243 94.5,51.5C 95.5375,52.9303 96.2041,54.597 96.5,56.5C 96.5,57.8333 96.5,59.1667 96.5,60.5C 95.5282,57.1028 93.8615,53.9361 91.5,51C 90.5493,46.729 89.5493,42.5623 88.5,38.5 Z"/></g>
<g><path style="opacity:0.925" fill="#f08b81" d="M 319.5,47.5 C 320.492,47.3284 321.158,47.6618 321.5,48.5C 321.5,49.8333 321.5,51.1667 321.5,52.5C 320.463,51.0697 319.796,49.403 319.5,47.5 Z"/></g>
<g><path style="opacity:0.91" fill="#f69692" d="M 353.5,45.5 C 355.065,47.5093 356.065,49.8427 356.5,52.5C 354.166,50.8243 353.166,48.491 353.5,45.5 Z"/></g>
<g><path style="opacity:0.525" fill="#f6aea5" d="M 394.5,47.5 C 393.065,48.9133 392.065,50.58 391.5,52.5C 391.5,51.1667 391.5,49.8333 391.5,48.5C 392.221,46.6182 393.221,46.2848 394.5,47.5 Z"/></g>
<g><path style="opacity:0.675" fill="#f69e9b" d="M 61.5,47.5 C 63.2132,48.6354 63.8799,50.302 63.5,52.5C 62.0687,51.2196 61.4021,49.5529 61.5,47.5 Z"/></g>
<g><path style="opacity:0.596" fill="#f69a96" d="M 264.5,47.5 C 266.262,48.2623 267.262,49.5956 267.5,51.5C 265.738,50.7377 264.738,49.4044 264.5,47.5 Z"/></g>
<g><path style="opacity:0.294" fill="#feb3ae" d="M 239.5,49.5 C 241.074,51.1016 241.741,53.1016 241.5,55.5C 240.262,53.7857 239.595,51.7857 239.5,49.5 Z"/></g>
<g><path style="opacity:1" fill="#ed6059" d="M 321.5,48.5 C 325.592,55.756 328.926,63.4226 331.5,71.5C 330.167,69.5 328.833,67.5 327.5,65.5C 326.662,65.1583 326.328,64.4916 326.5,63.5C 326.598,61.4471 325.931,59.7804 324.5,58.5C 322.992,56.8185 321.992,54.8185 321.5,52.5C 321.5,51.1667 321.5,49.8333 321.5,48.5 Z"/></g>
<g><path style="opacity:0.627" fill="#fcb0a9" d="M 388.5,48.5 C 388.416,52.8371 387.416,56.8371 385.5,60.5C 385.898,56.2393 386.898,52.2393 388.5,48.5 Z"/></g>
<g><path style="opacity:0.156" fill="#ffc3c2" d="M 554.5,33.5 C 555.167,33.5 555.833,33.5 556.5,33.5C 556.83,51.6744 556.497,69.6744 555.5,87.5C 555.819,69.4234 555.486,51.4234 554.5,33.5 Z"/></g>
<g><path style="opacity:1" fill="#e94a46" d="M 556.5,33.5 C 558.459,39.7496 559.126,46.4163 558.5,53.5C 560.099,53.2322 561.432,53.5655 562.5,54.5C 561.508,54.3284 560.842,54.6618 560.5,55.5C 559.834,61.9914 559.5,68.6581 559.5,75.5C 559.503,82.5351 560.17,89.2017 561.5,95.5C 562.272,99.4517 562.605,103.452 562.5,107.5C 560.087,101.849 558.587,95.8494 558,89.5C 557.303,100.173 556.136,110.506 554.5,120.5C 555.249,109.516 555.583,98.5164 555.5,87.5C 556.497,69.6744 556.83,51.6744 556.5,33.5 Z"/></g>
<g><path style="opacity:0.514" fill="#f6a8a0" d="M 597.5,49.5 C 599.587,50.5846 600.92,52.2512 601.5,54.5C 599.413,53.4154 598.08,51.7488 597.5,49.5 Z"/></g>
<g><path style="opacity:0.855" fill="#ef8c83" d="M 63.5,52.5 C 65.2798,53.9899 65.9465,55.9899 65.5,58.5C 64.2616,56.7857 63.595,54.7857 63.5,52.5 Z"/></g>
<g><path style="opacity:1" fill="#fd3232" d="M 247.5,35.5 C 248.766,36.0899 250.099,36.5899 251.5,37C 255.869,40.4154 260.202,43.9154 264.5,47.5C 264.738,49.4044 265.738,50.7377 267.5,51.5C 268.674,52.5137 269.34,53.847 269.5,55.5C 269.415,58.6489 270.415,61.3155 272.5,63.5C 272.5,66.1667 272.5,68.8333 272.5,71.5C 272.784,81.5522 272.45,91.5522 271.5,101.5C 271.425,104.206 271.092,106.873 270.5,109.5C 269.504,109.414 268.671,109.748 268,110.5C 267.505,112.473 267.338,114.473 267.5,116.5C 266.094,116.973 265.427,117.973 265.5,119.5C 265.573,121.027 264.906,122.027 263.5,122.5C 258.007,122.411 255.673,125.078 256.5,130.5C 253.446,130.354 251.446,131.687 250.5,134.5C 248.258,135.648 245.924,136.648 243.5,137.5C 243.137,138.183 242.804,138.85 242.5,139.5C 241.791,140.404 240.791,140.737 239.5,140.5C 238.167,140.5 236.833,140.5 235.5,140.5C 233.143,140.663 230.81,140.497 228.5,140C 229.381,139.292 230.047,138.458 230.5,137.5C 232.252,135.754 233.585,133.754 234.5,131.5C 235.496,131.586 236.329,131.252 237,130.5C 239.429,124.716 240.929,118.716 241.5,112.5C 241.5,112.167 241.5,111.833 241.5,111.5C 242.117,111.389 242.617,111.056 243,110.5C 243.186,107.964 243.686,105.631 244.5,103.5C 245.29,102.391 245.79,101.058 246,99.5C 246.177,86.9245 246.677,74.4245 247.5,62C 246.423,61.5304 245.423,61.6971 244.5,62.5C 243.651,60.1124 242.651,57.7791 241.5,55.5C 241.741,53.1016 241.074,51.1016 239.5,49.5C 239.376,45.5876 238.376,41.9209 236.5,38.5C 237.82,33.3327 238.986,33.3327 240,38.5C 242.235,36.7976 244.735,35.7976 247.5,35.5 Z"/></g>
<g><path style="opacity:0.537" fill="#fda7a3" d="M 560.5,55.5 C 560.842,54.6618 561.508,54.3284 562.5,54.5C 563.11,55.391 563.443,56.391 563.5,57.5C 562.5,56.8333 561.5,56.1667 560.5,55.5 Z"/></g>
<g><path style="opacity:0.914" fill="#f89591" d="M 356.5,52.5 C 358.065,54.5093 359.065,56.8427 359.5,59.5C 357.166,57.8243 356.166,55.491 356.5,52.5 Z"/></g>
<g><path style="opacity:0.867" fill="#f58f91" d="M 601.5,54.5 C 603.262,55.2623 604.262,56.5956 604.5,58.5C 602.738,57.7377 601.738,56.4044 601.5,54.5 Z"/></g>
<g><path style="opacity:0.914" fill="#f6a39c" d="M 563.5,57.5 C 565.531,58.5387 566.864,60.2054 567.5,62.5C 565.457,61.4206 564.124,59.754 563.5,57.5 Z"/></g>
<g><path style="opacity:0.961" fill="#f38d87" d="M 269.5,55.5 C 271.267,57.7916 272.267,60.4582 272.5,63.5C 270.415,61.3155 269.415,58.6489 269.5,55.5 Z"/></g>
<g><path style="opacity:0.906" fill="#f28c83" d="M 65.5,58.5 C 67.256,59.5521 67.9227,61.2188 67.5,63.5C 66.4625,62.0697 65.7959,60.403 65.5,58.5 Z"/></g>
<g><path style="opacity:1" fill="#fd3231" d="M 56.5,27.5 C 69.5171,27.1675 82.5171,27.5009 95.5,28.5C 93.8917,29.3184 92.2251,29.9851 90.5,30.5C 89.6143,31.325 89.281,32.325 89.5,33.5C 89.1667,33.5 88.8333,33.5 88.5,33.5C 87.1667,35.1667 87.1667,36.8333 88.5,38.5C 89.5493,42.5623 90.5493,46.729 91.5,51C 93.8615,53.9361 95.5282,57.1028 96.5,60.5C 97.1001,61.9002 98.1001,62.9002 99.5,63.5C 99.5,63.8333 99.5,64.1667 99.5,64.5C 99.1201,66.698 99.7868,68.3646 101.5,69.5C 101.166,72.491 102.166,74.8243 104.5,76.5C 104.34,78.1992 104.506,79.8659 105,81.5C 107.019,86.871 109.519,91.871 112.5,96.5C 112.12,98.698 112.787,100.365 114.5,101.5C 114.345,104.716 115.345,107.383 117.5,109.5C 117.235,113.653 118.569,116.987 121.5,119.5C 121.235,123.653 122.569,126.987 125.5,129.5C 125.963,132.482 126.296,135.482 126.5,138.5C 129.594,139.213 132.594,140.213 135.5,141.5C 135.209,142.649 134.376,143.316 133,143.5C 120.193,142.547 107.36,142.214 94.5,142.5C 94.59,140.304 94.9233,138.137 95.5,136C 95.3158,134.624 94.6491,133.791 93.5,133.5C 93.0022,130.513 92.5022,127.513 92,124.5C 90.5814,122.007 89.0814,119.674 87.5,117.5C 86.596,116.791 86.2627,115.791 86.5,114.5C 86.3969,111.364 85.3969,108.698 83.5,106.5C 83.5,106.167 83.5,105.833 83.5,105.5C 83.4829,103.494 83.1496,101.494 82.5,99.5C 81.2833,95.642 79.6166,91.9753 77.5,88.5C 77.0679,87.2905 76.4013,86.2905 75.5,85.5C 74.596,84.791 74.2627,83.791 74.5,82.5C 74.5979,80.4471 73.9313,78.7804 72.5,77.5C 71.596,76.791 71.2627,75.791 71.5,74.5C 71.6488,71.3926 71.1488,68.3926 70,65.5C 69.5831,64.244 68.7498,63.5774 67.5,63.5C 67.9227,61.2188 67.256,59.5521 65.5,58.5C 65.9465,55.9899 65.2798,53.9899 63.5,52.5C 63.8799,50.302 63.2132,48.6354 61.5,47.5C 61.3259,45.139 60.9926,42.8056 60.5,40.5C 61.1128,37.0306 59.7794,35.0306 56.5,34.5C 56.5,33.1667 56.5,31.8333 56.5,30.5C 56.5,29.5 56.5,28.5 56.5,27.5 Z"/></g>
<g><path style="opacity:0.8" fill="#f59b96" d="M 96.5,56.5 C 97.7362,58.649 98.7362,60.9823 99.5,63.5C 98.1001,62.9002 97.1001,61.9002 96.5,60.5C 96.5,59.1667 96.5,57.8333 96.5,56.5 Z"/></g>
<g><path style="opacity:0.773" fill="#f4928f" d="M 604.5,58.5 C 606.587,59.5846 607.92,61.2512 608.5,63.5C 606.413,62.4154 605.08,60.7488 604.5,58.5 Z"/></g>
<g><path style="opacity:0.506" fill="#f2afad" d="M 47.5,58.5 C 47.9465,61.0101 47.2798,63.0101 45.5,64.5C 45.8751,62.3024 46.5418,60.3024 47.5,58.5 Z"/></g>
<g><path style="opacity:0.294" fill="#fcafab" d="M 324.5,58.5 C 325.931,59.7804 326.598,61.4471 326.5,63.5C 325.069,62.2196 324.402,60.5529 324.5,58.5 Z"/></g>
<g><path style="opacity:1" fill="#fd3231" d="M 583.5,33.5 C 584.5,34.1667 585.5,34.8333 586.5,35.5C 587.08,37.7488 588.413,39.4154 590.5,40.5C 591.08,42.7488 592.413,44.4154 594.5,45.5C 594.738,47.4044 595.738,48.7377 597.5,49.5C 598.08,51.7488 599.413,53.4154 601.5,54.5C 601.738,56.4044 602.738,57.7377 604.5,58.5C 605.08,60.7488 606.413,62.4154 608.5,63.5C 609.167,63.5 609.5,63.8333 609.5,64.5C 609.738,66.4044 610.738,67.7377 612.5,68.5C 613.08,70.7488 614.413,72.4154 616.5,73.5C 616.738,75.4044 617.738,76.7377 619.5,77.5C 620.419,80.0892 622.086,82.0892 624.5,83.5C 624.427,85.0269 625.094,86.0269 626.5,86.5C 627.08,88.7488 628.413,90.4154 630.5,91.5C 631.419,94.0892 633.086,96.0892 635.5,97.5C 636.167,97.8333 636.833,98.1667 637.5,98.5C 637.5,113.5 637.5,128.5 637.5,143.5C 635.097,143.552 632.764,143.219 630.5,142.5C 630.5,142.167 630.5,141.833 630.5,141.5C 630.632,137.968 628.966,135.968 625.5,135.5C 623.293,130.943 620.626,126.61 617.5,122.5C 616.423,121.295 615.09,120.628 613.5,120.5C 612.057,114.404 608.723,109.737 603.5,106.5C 602.965,104.554 601.632,103.554 599.5,103.5C 599.5,103.167 599.5,102.833 599.5,102.5C 599.512,99.858 598.179,98.5246 595.5,98.5C 595.5,98.1667 595.5,97.8333 595.5,97.5C 595.579,96.0695 595.246,94.7362 594.5,93.5C 591.576,89.8522 588.743,86.1855 586,82.5C 584.67,81.4178 583.17,80.7512 581.5,80.5C 581.446,78.368 580.446,77.0347 578.5,76.5C 578.446,74.368 577.446,73.0347 575.5,72.5C 575.532,70.3812 574.532,69.0478 572.5,68.5C 572.371,65.1299 570.705,63.1299 567.5,62.5C 566.864,60.2054 565.531,58.5387 563.5,57.5C 563.443,56.391 563.11,55.391 562.5,54.5C 561.432,53.5655 560.099,53.2322 558.5,53.5C 559.126,46.4163 558.459,39.7496 556.5,33.5C 555.105,31.6206 553.105,30.6206 550.5,30.5C 554.445,29.1745 558.778,28.5079 563.5,28.5C 567.833,28.6667 572.167,28.8333 576.5,29C 579.202,30.0121 581.535,31.5121 583.5,33.5 Z"/></g>
<g><path style="opacity:1" fill="#f27472" d="M 567.5,62.5 C 570.705,63.1299 572.371,65.1299 572.5,68.5C 570.11,67.1092 568.443,65.1092 567.5,62.5 Z"/></g>
<g><path style="opacity:0.153" fill="#fec1be" d="M 53.5,50.5 C 49.5795,67.277 47.2462,84.277 46.5,101.5C 58.1667,101.5 69.8333,101.5 81.5,101.5C 81.5,101.833 81.5,102.167 81.5,102.5C 69.5,102.5 57.5,102.5 45.5,102.5C 45.5962,94.8207 45.9295,87.154 46.5,79.5C 48.0866,69.6421 50.42,59.9755 53.5,50.5 Z"/></g>
<g><path style="opacity:0.482" fill="#fec2c2" d="M 385.5,60.5 C 385.083,66.1698 383.749,71.5032 381.5,76.5C 382.232,70.9063 383.565,65.5729 385.5,60.5 Z"/></g>
<g><path style="opacity:0.722" fill="#f9ab98" d="M 609.5,64.5 C 611.262,65.2623 612.262,66.5956 612.5,68.5C 610.738,67.7377 609.738,66.4044 609.5,64.5 Z"/></g>
<g><path style="opacity:0.992" fill="#f27976" d="M 67.5,63.5 C 68.7498,63.5774 69.5831,64.244 70,65.5C 71.1488,68.3926 71.6488,71.3926 71.5,74.5C 69.3987,71.2034 68.0653,67.5368 67.5,63.5 Z"/></g>
<g><path style="opacity:0.91" fill="#f39392" d="M 99.5,64.5 C 100.931,65.7804 101.598,67.4471 101.5,69.5C 99.7868,68.3646 99.1201,66.698 99.5,64.5 Z"/></g>
<g><path style="opacity:0.949" fill="#f1847f" d="M 359.5,59.5 C 361.679,63.2025 363.345,67.2025 364.5,71.5C 361.968,69.3165 360.302,66.6498 359.5,63.5C 359.5,62.1667 359.5,60.8333 359.5,59.5 Z"/></g>
<g><path style="opacity:1" fill="#e64946" d="M 56.5,30.5 C 56.5,31.8333 56.5,33.1667 56.5,34.5C 59.7794,35.0306 61.1128,37.0306 60.5,40.5C 59.8333,40.1667 59.1667,39.8333 58.5,39.5C 58.719,38.325 58.3857,37.325 57.5,36.5C 55.7826,37.6685 55.1159,39.3352 55.5,41.5C 53.9605,43.8383 53.2938,46.5049 53.5,49.5C 53.5,49.8333 53.5,50.1667 53.5,50.5C 50.42,59.9755 48.0866,69.6421 46.5,79.5C 46.6633,77.1432 46.4966,74.8098 46,72.5C 45.0978,74.4308 43.9312,76.0975 42.5,77.5C 42.366,75.7085 42.6993,74.0418 43.5,72.5C 44.1174,72.3893 44.6174,72.056 45,71.5C 45.4955,69.5273 45.6621,67.5273 45.5,65.5C 45.5,65.1667 45.5,64.8333 45.5,64.5C 47.2798,63.0101 47.9465,61.0101 47.5,58.5C 49.6141,53.8065 50.9474,48.8065 51.5,43.5C 52.1174,43.3893 52.6174,43.056 53,42.5C 53.696,39.5219 54.196,36.5219 54.5,33.5C 55.1667,32.5 55.8333,31.5 56.5,30.5 Z"/></g>
<g><path style="opacity:0.118" fill="#fdc3b9" d="M 327.5,65.5 C 328.833,67.5 330.167,69.5 331.5,71.5C 331.5,72.5 331.5,73.5 331.5,74.5C 329.375,71.9122 328.042,68.9122 327.5,65.5 Z"/></g>
<g><path style="opacity:1" fill="#f38986" d="M 572.5,68.5 C 574.532,69.0478 575.532,70.3812 575.5,72.5C 573.738,71.7377 572.738,70.4044 572.5,68.5 Z"/></g>
<g><path style="opacity:0.075" fill="#fec1bf" d="M 632.5,55.5 C 633.697,61.1374 634.697,66.8041 635.5,72.5C 635.5,79.8333 635.5,87.1667 635.5,94.5C 635.167,94.5 634.833,94.5 634.5,94.5C 634.07,81.4869 633.404,68.4869 632.5,55.5 Z"/></g>
<g><path style="opacity:0.886" fill="#f09590" d="M 45.5,65.5 C 45.6621,67.5273 45.4955,69.5273 45,71.5C 44.6174,72.056 44.1174,72.3893 43.5,72.5C 43.7215,69.9327 44.3882,67.5994 45.5,65.5 Z"/></g>
<g><path style="opacity:0.729" fill="#f59b97" d="M 612.5,68.5 C 614.587,69.5846 615.92,71.2512 616.5,73.5C 614.413,72.4154 613.08,70.7488 612.5,68.5 Z"/></g>
<g><path style="opacity:0.91" fill="#f49a97" d="M 101.5,69.5 C 103.065,71.5093 104.065,73.8427 104.5,76.5C 102.166,74.8243 101.166,72.491 101.5,69.5 Z"/></g>
<g><path style="opacity:0.776" fill="#f49593" d="M 272.5,63.5 C 273.856,66.5767 274.689,69.9101 275,73.5C 275.821,80.3464 275.654,87.013 274.5,93.5C 274.666,87.4908 274.499,81.4908 274,75.5C 273.79,73.9419 273.29,72.6085 272.5,71.5C 272.5,68.8333 272.5,66.1667 272.5,63.5 Z"/></g>
<g><path style="opacity:0.627" fill="#f89b98" d="M 575.5,72.5 C 577.446,73.0347 578.446,74.368 578.5,76.5C 577.026,75.5637 576.026,74.2303 575.5,72.5 Z"/></g>
<g><path style="opacity:0.867" fill="#f19b91" d="M 616.5,73.5 C 618.262,74.2623 619.262,75.5956 619.5,77.5C 617.738,76.7377 616.738,75.4044 616.5,73.5 Z"/></g>
<g><path style="opacity:0.24" fill="#fdb4b3" d="M 311.5,64.5 C 311.775,81.0282 311.108,97.3615 309.5,113.5C 309.749,96.9923 310.416,80.6589 311.5,64.5 Z"/></g>
<g><path style="opacity:1" fill="#eb6158" d="M 331.5,71.5 C 333.665,75.4198 335.832,79.4198 338,83.5C 338.49,84.7932 338.657,86.1266 338.5,87.5C 337.833,86.8333 337.167,86.1667 336.5,85.5C 335.662,85.1583 335.328,84.4916 335.5,83.5C 335.771,81.6203 335.104,80.287 333.5,79.5C 332.463,78.0697 331.796,76.403 331.5,74.5C 331.5,73.5 331.5,72.5 331.5,71.5 Z"/></g>
<g><path style="opacity:0.396" fill="#fdb8b6" d="M 386.5,72.5 C 386.101,76.1165 385.101,79.4498 383.5,82.5C 383.59,78.7858 384.59,75.4525 386.5,72.5 Z"/></g>
<g><path style="opacity:0.863" fill="#f7a8a0" d="M 578.5,76.5 C 580.446,77.0347 581.446,78.368 581.5,80.5C 580.026,79.5637 579.026,78.2303 578.5,76.5 Z"/></g>
<g><path style="opacity:1" fill="#fd3231" d="M 359.5,63.5 C 360.302,66.6498 361.968,69.3165 364.5,71.5C 365.61,75.4063 366.443,79.4063 367,83.5C 367.852,84.5707 368.685,85.5707 369.5,86.5C 370.281,89.6082 370.614,92.6082 370.5,95.5C 372.472,93.6787 374.806,93.512 377.5,95C 376.549,98.0567 376.216,101.223 376.5,104.5C 376.5,104.833 376.5,105.167 376.5,105.5C 373.684,112.414 370.684,119.248 367.5,126C 368.097,127.062 368.43,128.228 368.5,129.5C 367.62,132.802 366.954,136.135 366.5,139.5C 365.167,139.5 363.833,139.5 362.5,139.5C 362.19,137.856 361.19,136.856 359.5,136.5C 358.662,136.158 358.328,135.492 358.5,134.5C 357.999,129.324 356.332,124.658 353.5,120.5C 352.857,118.924 351.857,117.59 350.5,116.5C 349.662,116.158 349.328,115.492 349.5,114.5C 349.771,112.62 349.104,111.287 347.5,110.5C 347.371,108.784 347.038,107.117 346.5,105.5C 344.619,101.373 343.119,97.0396 342,92.5C 341.329,91.7476 340.496,91.4142 339.5,91.5C 339.567,90.0413 339.234,88.7079 338.5,87.5C 338.657,86.1266 338.49,84.7932 338,83.5C 335.832,79.4198 333.665,75.4198 331.5,71.5C 328.926,63.4226 325.592,55.756 321.5,48.5C 321.158,47.6618 320.492,47.3284 319.5,47.5C 319.923,45.2188 319.256,43.5521 317.5,42.5C 317.5,42.1667 317.5,41.8333 317.5,41.5C 316.817,39.8235 315.483,39.1568 313.5,39.5C 313.795,37.2646 313.461,35.2646 312.5,33.5C 311.833,33.5 311.167,33.5 310.5,33.5C 309.564,32.0256 308.23,31.0256 306.5,30.5C 306.082,29.7784 305.416,29.2784 304.5,29C 309.667,28.8333 314.833,28.6667 320,28.5C 327.919,28.3407 335.752,29.0073 343.5,30.5C 345.682,34.5455 347.182,38.8788 348,43.5C 349.395,45.1397 350.895,46.6397 352.5,48C 351.196,48.804 350.529,49.9707 350.5,51.5C 351.116,53.7214 352.283,54.3881 354,53.5C 354.286,57.8394 356.119,61.1728 359.5,63.5 Z"/></g>
<g><path style="opacity:1" fill="#e6635e" d="M 389.5,43.5 C 389.336,46.1873 389.503,48.854 390,51.5C 390.232,50.2625 390.732,49.2625 391.5,48.5C 391.5,49.8333 391.5,51.1667 391.5,52.5C 390.237,59.2855 388.57,65.9522 386.5,72.5C 384.59,75.4525 383.59,78.7858 383.5,82.5C 383.5,83.1667 383.5,83.8333 383.5,84.5C 381.446,87.0076 380.446,90.0076 380.5,93.5C 380.634,95.2915 380.301,96.9582 379.5,98.5C 379.167,98.5 378.833,98.5 378.5,98.5C 379.103,95.9591 379.103,93.6257 378.5,91.5C 379.219,89.2362 379.552,86.9029 379.5,84.5C 379.5,84.1667 379.5,83.8333 379.5,83.5C 381.163,81.5615 381.829,79.2282 381.5,76.5C 383.749,71.5032 385.083,66.1698 385.5,60.5C 387.416,56.8371 388.416,52.8371 388.5,48.5C 388.216,46.5853 388.549,44.9187 389.5,43.5 Z"/></g>
<g><path style="opacity:0.396" fill="#faa5a1" d="M 241.5,55.5 C 242.651,57.7791 243.651,60.1124 244.5,62.5C 245.808,76.1649 245.808,89.8316 244.5,103.5C 243.686,105.631 243.186,107.964 243,110.5C 242.617,111.056 242.117,111.389 241.5,111.5C 245.469,92.8275 245.469,74.1608 241.5,55.5 Z"/></g>
<g><path style="opacity:1" fill="#ed4e49" d="M 272.5,71.5 C 273.29,72.6085 273.79,73.9419 274,75.5C 274.499,81.4908 274.666,87.4908 274.5,93.5C 274.702,95.9496 274.369,98.283 273.5,100.5C 272.833,100.833 272.167,101.167 271.5,101.5C 272.45,91.5522 272.784,81.5522 272.5,71.5 Z"/></g>
<g><path style="opacity:0.259" fill="#febdba" d="M 72.5,77.5 C 73.9313,78.7804 74.5979,80.4471 74.5,82.5C 73.0687,81.2196 72.4021,79.5529 72.5,77.5 Z"/></g>
<g><path style="opacity:0.996" fill="#f89b98" d="M 104.5,76.5 C 107.679,82.8737 110.346,89.5404 112.5,96.5C 109.519,91.871 107.019,86.871 105,81.5C 104.506,79.8659 104.34,78.1992 104.5,76.5 Z"/></g>
<g><path style="opacity:0.545" fill="#f9b7b5" d="M 381.5,76.5 C 381.829,79.2282 381.163,81.5615 379.5,83.5C 379.721,80.9327 380.388,78.5994 381.5,76.5 Z"/></g>
<g><path style="opacity:0.647" fill="#f5a298" d="M 619.5,77.5 C 621.914,78.9108 623.581,80.9108 624.5,83.5C 622.086,82.0892 620.419,80.0892 619.5,77.5 Z"/></g>
<g><path style="opacity:0.153" fill="#fac1bd" d="M 333.5,79.5 C 335.104,80.287 335.771,81.6203 335.5,83.5C 334.326,82.4863 333.66,81.153 333.5,79.5 Z"/></g>
<g><path style="opacity:1" fill="#f16860" d="M 364.5,71.5 C 366.403,74.9789 368.07,78.6456 369.5,82.5C 369.5,83.8333 369.5,85.1667 369.5,86.5C 368.685,85.5707 367.852,84.5707 367,83.5C 366.443,79.4063 365.61,75.4063 364.5,71.5 Z"/></g>
<g><path style="opacity:0.706" fill="#f4948f" d="M 42.5,77.5 C 42.5905,80.1522 41.9238,82.4855 40.5,84.5C 40.4095,81.8478 41.0762,79.5145 42.5,77.5 Z"/></g>
<g><path style="opacity:1" fill="#ee7169" d="M 581.5,80.5 C 583.17,80.7512 584.67,81.4178 586,82.5C 588.743,86.1855 591.576,89.8522 594.5,93.5C 595.246,94.7362 595.579,96.0695 595.5,97.5C 590.127,92.4253 585.461,86.7587 581.5,80.5 Z"/></g>
<g><path style="opacity:0.745" fill="#f69c94" d="M 624.5,83.5 C 625.906,83.9731 626.573,84.9731 626.5,86.5C 625.094,86.0269 624.427,85.0269 624.5,83.5 Z"/></g>
<g><path style="opacity:1" fill="#e73d3a" d="M 244.5,103.5 C 245.808,89.8316 245.808,76.1649 244.5,62.5C 245.423,61.6971 246.423,61.5304 247.5,62C 246.677,74.4245 246.177,86.9245 246,99.5C 245.79,101.058 245.29,102.391 244.5,103.5 Z"/></g>
<g><path style="opacity:0.761" fill="#f3a5a0" d="M 369.5,82.5 C 370.537,83.9303 371.204,85.597 371.5,87.5C 370.833,87.1667 370.167,86.8333 369.5,86.5C 369.5,85.1667 369.5,83.8333 369.5,82.5 Z"/></g>
<g><path style="opacity:0.078" fill="#ffd6d5" d="M 394.5,47.5 C 394.833,47.5 395.167,47.5 395.5,47.5C 396.159,77.8519 395.492,107.852 393.5,137.5C 394.492,107.574 394.825,77.5736 394.5,47.5 Z"/></g>
<g><path style="opacity:0.298" fill="#fbb5b4" d="M 315.5,69.5 C 316.385,80.0011 317.052,90.6677 317.5,101.5C 315.772,95.7616 315.105,89.7616 315.5,83.5C 315.5,78.8333 315.5,74.1667 315.5,69.5 Z"/></g>
<g><path style="opacity:0.463" fill="#fbb9ad" d="M 383.5,84.5 C 382.946,87.7458 381.946,90.7458 380.5,93.5C 380.446,90.0076 381.446,87.0076 383.5,84.5 Z"/></g>
<g><path style="opacity:0.314" fill="#feadb0" d="M 504.5,34.5 C 504.333,68.5016 504.5,102.502 505,136.5C 505.995,137.066 506.828,137.733 507.5,138.5C 506.041,138.567 504.708,138.234 503.5,137.5C 503.168,102.996 503.502,68.6626 504.5,34.5 Z"/></g>
<g><path style="opacity:0.969" fill="#f18782" d="M 626.5,86.5 C 628.587,87.5846 629.92,89.2512 630.5,91.5C 628.413,90.4154 627.08,88.7488 626.5,86.5 Z"/></g>
<g><path style="opacity:0.298" fill="#fdbab3" d="M 75.5,85.5 C 76.4013,86.2905 77.0679,87.2905 77.5,88.5C 77.5,89.1667 77.5,89.8333 77.5,90.5C 76.0687,89.2196 75.4021,87.5529 75.5,85.5 Z"/></g>
<g><path style="opacity:0.11" fill="#fdbdb5" d="M 336.5,85.5 C 337.167,86.1667 337.833,86.8333 338.5,87.5C 339.234,88.7079 339.567,90.0413 339.5,91.5C 339.5,91.8333 339.5,92.1667 339.5,92.5C 337.707,90.5739 336.707,88.2406 336.5,85.5 Z"/></g>
<g><path style="opacity:0.671" fill="#f5aa9f" d="M 379.5,84.5 C 379.552,86.9029 379.219,89.2362 378.5,91.5C 378.167,91.5 377.833,91.5 377.5,91.5C 377.721,88.9327 378.388,86.5994 379.5,84.5 Z"/></g>
<g><path style="opacity:0.706" fill="#f6a39f" d="M 40.5,84.5 C 39.1676,90.1646 37.8342,95.8312 36.5,101.5C 35.8571,103.076 34.8571,104.41 33.5,105.5C 35.3874,98.2547 37.7207,91.2547 40.5,84.5 Z"/></g>
<g><path style="opacity:0.929" fill="#f4968e" d="M 371.5,87.5 C 372.345,88.6715 373.011,90.0048 373.5,91.5C 371.824,90.8166 371.157,89.4832 371.5,87.5 Z"/></g>
<g><path style="opacity:0.886" fill="#f5a7a3" d="M 560.5,55.5 C 560.334,68.8513 560.667,82.1846 561.5,95.5C 560.17,89.2017 559.503,82.5351 559.5,75.5C 559.5,68.6581 559.834,61.9914 560.5,55.5 Z"/></g>
<g><path style="opacity:0.973" fill="#f5908a" d="M 630.5,91.5 C 631.833,92.5 633.167,93.5 634.5,94.5C 634.5,95.1667 634.833,95.5 635.5,95.5C 635.5,96.1667 635.5,96.8333 635.5,97.5C 633.086,96.0892 631.419,94.0892 630.5,91.5 Z"/></g>
<g><path style="opacity:1" fill="#f37a72" d="M 339.5,91.5 C 340.496,91.4142 341.329,91.7476 342,92.5C 343.119,97.0396 344.619,101.373 346.5,105.5C 346.167,105.5 345.833,105.5 345.5,105.5C 343.13,101.414 341.13,97.0806 339.5,92.5C 339.5,92.1667 339.5,91.8333 339.5,91.5 Z"/></g>
<g><path style="opacity:1" fill="#ed3c3b" d="M 46.5,79.5 C 45.9295,87.154 45.5962,94.8207 45.5,102.5C 57.5,102.5 69.5,102.5 81.5,102.5C 82.404,101.791 82.7373,100.791 82.5,99.5C 83.1496,101.494 83.4829,103.494 83.5,105.5C 70.8333,105.5 58.1667,105.5 45.5,105.5C 45.1667,105.5 44.8333,105.5 44.5,105.5C 44.5086,103.692 44.0086,102.025 43,100.5C 42.3333,101.167 41.6667,101.833 41,102.5C 39.858,100.223 39.358,97.8901 39.5,95.5C 38.9892,97.8839 37.9892,99.8839 36.5,101.5C 37.8342,95.8312 39.1676,90.1646 40.5,84.5C 41.9238,82.4855 42.5905,80.1522 42.5,77.5C 43.9312,76.0975 45.0978,74.4308 46,72.5C 46.4966,74.8098 46.6633,77.1432 46.5,79.5 Z"/></g>
<g><path style="opacity:1" fill="#f14944" d="M 369.5,86.5 C 370.167,86.8333 370.833,87.1667 371.5,87.5C 371.157,89.4832 371.824,90.8166 373.5,91.5C 374.833,91.5 376.167,91.5 377.5,91.5C 377.833,91.5 378.167,91.5 378.5,91.5C 379.103,93.6257 379.103,95.9591 378.5,98.5C 378.125,100.698 377.458,102.698 376.5,104.5C 376.216,101.223 376.549,98.0567 377.5,95C 374.806,93.512 372.472,93.6787 370.5,95.5C 370.614,92.6082 370.281,89.6082 369.5,86.5 Z"/></g>
<g><path style="opacity:1" fill="#e94443" d="M 639.5,69.5 C 639.5,75.8333 639.5,82.1667 639.5,88.5C 638.532,90.6074 638.198,92.9407 638.5,95.5C 637.596,96.209 637.263,97.209 637.5,98.5C 636.833,98.1667 636.167,97.8333 635.5,97.5C 635.5,96.8333 635.5,96.1667 635.5,95.5C 635.5,95.1667 635.5,94.8333 635.5,94.5C 635.5,87.1667 635.5,79.8333 635.5,72.5C 636.327,77.9851 636.827,83.6518 637,89.5C 637.999,82.7146 638.832,76.0479 639.5,69.5 Z"/></g>
<g><path style="opacity:0.875" fill="#f2817d" d="M 77.5,88.5 C 79.6166,91.9753 81.2833,95.642 82.5,99.5C 82.7373,100.791 82.404,101.791 81.5,102.5C 81.5,102.167 81.5,101.833 81.5,101.5C 79.3772,98.1326 78.0439,94.466 77.5,90.5C 77.5,89.8333 77.5,89.1667 77.5,88.5 Z"/></g>
<g><path style="opacity:0.745" fill="#faa5a0" d="M 112.5,96.5 C 113.537,97.9303 114.204,99.597 114.5,101.5C 112.787,100.365 112.12,98.698 112.5,96.5 Z"/></g>
<g><path style="opacity:1" fill="#f27f73" d="M 595.5,98.5 C 598.179,98.5246 599.512,99.858 599.5,102.5C 597.833,101.5 596.5,100.167 595.5,98.5 Z"/></g>
<g><path style="opacity:0.459" fill="#fcb3b1" d="M 378.5,98.5 C 378.833,98.5 379.167,98.5 379.5,98.5C 379.101,102.116 378.101,105.45 376.5,108.5C 376.5,107.5 376.5,106.5 376.5,105.5C 376.5,105.167 376.5,104.833 376.5,104.5C 377.458,102.698 378.125,100.698 378.5,98.5 Z"/></g>
<g><path style="opacity:0.95" fill="#dd5c5b" d="M 638.5,95.5 C 638.5,111.833 638.5,128.167 638.5,144.5C 635.282,146.184 632.615,145.517 630.5,142.5C 632.764,143.219 635.097,143.552 637.5,143.5C 637.5,128.5 637.5,113.5 637.5,98.5C 637.263,97.209 637.596,96.209 638.5,95.5 Z"/></g>
<g><path style="opacity:0.749" fill="#f99e96" d="M 114.5,101.5 C 115.871,103.936 116.871,106.603 117.5,109.5C 115.345,107.383 114.345,104.716 114.5,101.5 Z"/></g>
<g><path style="opacity:0.329" fill="#faa9a4" d="M 273.5,100.5 C 273.253,103.854 272.253,106.854 270.5,109.5C 271.092,106.873 271.425,104.206 271.5,101.5C 272.167,101.167 272.833,100.833 273.5,100.5 Z"/></g>
<g><path style="opacity:1" fill="#f29282" d="M 599.5,103.5 C 601.632,103.554 602.965,104.554 603.5,106.5C 604.6,107.605 605.267,108.938 605.5,110.5C 603.273,108.393 601.273,106.06 599.5,103.5 Z"/></g>
<g><path style="opacity:0.047" fill="#ffd0ce" d="M 45.5,105.5 C 58.1667,105.5 70.8333,105.5 83.5,105.5C 83.5,105.833 83.5,106.167 83.5,106.5C 71.1667,106.5 58.8333,106.5 46.5,106.5C 46.5,108.5 46.5,110.5 46.5,112.5C 45.5318,110.393 45.1984,108.059 45.5,105.5 Z"/></g>
<g><path style="opacity:0.106" fill="#fec8c7" d="M 345.5,105.5 C 345.833,105.5 346.167,105.5 346.5,105.5C 347.038,107.117 347.371,108.784 347.5,110.5C 346.069,109.22 345.402,107.553 345.5,105.5 Z"/></g>
<g><path style="opacity:0.706" fill="#f7b1a8" d="M 33.5,106.5 C 33.634,108.292 33.3007,109.958 32.5,111.5C 32.1667,111.5 31.8333,111.5 31.5,111.5C 31.7959,109.597 32.4625,107.93 33.5,106.5 Z"/></g>
<g><path style="opacity:0.682" fill="#f9aeac" d="M 317.5,101.5 C 318.563,105.639 319.23,109.972 319.5,114.5C 317.823,110.455 317.156,106.122 317.5,101.5 Z"/></g>
<g><path style="opacity:1" fill="#ef5c55" d="M 603.5,106.5 C 608.723,109.737 612.057,114.404 613.5,120.5C 611.367,118.909 609.701,116.909 608.5,114.5C 608.446,112.368 607.446,111.035 605.5,110.5C 605.267,108.938 604.6,107.605 603.5,106.5 Z"/></g>
<g><path style="opacity:1" fill="#f57f75" d="M 270.5,109.5 C 270.293,112.241 269.293,114.574 267.5,116.5C 267.338,114.473 267.505,112.473 268,110.5C 268.671,109.748 269.504,109.414 270.5,109.5 Z"/></g>
<g><path style="opacity:1" fill="#ee544e" d="M 311.5,64.5 C 311.833,64.5 312.167,64.5 312.5,64.5C 312.972,86.5573 312.139,108.557 310,130.5C 309.001,134.716 307.167,138.383 304.5,141.5C 304.5,140.833 304.5,140.167 304.5,139.5C 304.557,138.391 304.89,137.391 305.5,136.5C 307.28,135.01 307.946,133.01 307.5,130.5C 307.816,124.651 308.482,118.984 309.5,113.5C 311.108,97.3615 311.775,81.0282 311.5,64.5 Z"/></g>
<g><path style="opacity:0.345" fill="#faa2a0" d="M 83.5,106.5 C 85.3969,108.698 86.3969,111.364 86.5,114.5C 84.7329,112.208 83.7329,109.542 83.5,106.5 Z"/></g>
<g><path style="opacity:0.282" fill="#fbb6b0" d="M 347.5,110.5 C 349.104,111.287 349.771,112.62 349.5,114.5C 348.326,113.486 347.66,112.153 347.5,110.5 Z"/></g>
<g><path style="opacity:0.102" fill="#fdc4c4" d="M 555.5,87.5 C 555.583,98.5164 555.249,109.516 554.5,120.5C 554.167,120.5 553.833,120.5 553.5,120.5C 553.882,109.33 554.548,98.3297 555.5,87.5 Z"/></g>
<g><path style="opacity:0.471" fill="#fdb0ab" d="M 605.5,110.5 C 607.446,111.035 608.446,112.368 608.5,114.5C 607.026,113.564 606.026,112.23 605.5,110.5 Z"/></g>
<g><path style="opacity:0.91" fill="#ee9796" d="M 31.5,112.5 C 31.8799,114.698 31.2132,116.365 29.5,117.5C 29.7959,115.597 30.4625,113.93 31.5,112.5 Z"/></g>
<g><path style="opacity:0.396" fill="#fbb5af" d="M 375.5,113.5 C 375.101,117.116 374.101,120.45 372.5,123.5C 372.59,119.786 373.59,116.452 375.5,113.5 Z"/></g>
<g><path style="opacity:1" fill="#f1736a" d="M 117.5,109.5 C 119.346,112.54 120.679,115.873 121.5,119.5C 118.569,116.987 117.235,113.653 117.5,109.5 Z"/></g>
<g><path style="opacity:0.243" fill="#fbaeab" d="M 267.5,116.5 C 267.573,118.027 266.906,119.027 265.5,119.5C 265.427,117.973 266.094,116.973 267.5,116.5 Z"/></g>
<g><path style="opacity:0.533" fill="#fcb5a9" d="M 350.5,116.5 C 351.857,117.59 352.857,118.924 353.5,120.5C 353.5,121.5 353.5,122.5 353.5,123.5C 351.707,121.574 350.707,119.241 350.5,116.5 Z"/></g>
<g><path style="opacity:0.98" fill="#ed6f69" d="M 44.5,105.5 C 44.8333,105.5 45.1667,105.5 45.5,105.5C 45.1984,108.059 45.5318,110.393 46.5,112.5C 47.4416,116.418 48.1082,120.418 48.5,124.5C 48.1667,124.5 47.8333,124.5 47.5,124.5C 45.1236,118.425 44.1236,112.092 44.5,105.5 Z"/></g>
<g><path style="opacity:0.878" fill="#f28d88" d="M 241.5,112.5 C 240.929,118.716 239.429,124.716 237,130.5C 236.329,131.252 235.496,131.586 234.5,131.5C 237.056,125.158 239.389,118.824 241.5,112.5 Z"/></g>
<g><path style="opacity:0.161" fill="#ffc8c8" d="M 639.5,88.5 C 639.982,89.4163 640.315,90.4163 640.5,91.5C 639.859,109.314 639.193,126.98 638.5,144.5C 638.5,128.167 638.5,111.833 638.5,95.5C 638.198,92.9407 638.532,90.6074 639.5,88.5 Z"/></g>
<g><path style="opacity:0.973" fill="#f17f7a" d="M 353.5,120.5 C 356.332,124.658 357.999,129.324 358.5,134.5C 356.269,131.164 354.603,127.497 353.5,123.5C 353.5,122.5 353.5,121.5 353.5,120.5 Z"/></g>
<g><path style="opacity:0.671" fill="#fdaba4" d="M 564.5,118.5 C 565.871,120.936 566.871,123.603 567.5,126.5C 566.833,126.167 566.167,125.833 565.5,125.5C 565.007,123.194 564.674,120.861 564.5,118.5 Z"/></g>
<g><path style="opacity:0.78" fill="#faa09e" d="M 320.5,119.5 C 321.871,121.936 322.871,124.603 323.5,127.5C 321.345,125.383 320.345,122.716 320.5,119.5 Z"/></g>
<g><path style="opacity:1" fill="#f4594f" d="M 376.5,105.5 C 376.5,106.5 376.5,107.5 376.5,108.5C 376.634,110.292 376.301,111.958 375.5,113.5C 373.59,116.452 372.59,119.786 372.5,123.5C 371.868,127.702 370.868,131.702 369.5,135.5C 368.883,135.611 368.383,135.944 368,136.5C 367.505,138.473 367.338,140.473 367.5,142.5C 364.729,143.773 363.062,142.773 362.5,139.5C 363.833,139.5 365.167,139.5 366.5,139.5C 366.954,136.135 367.62,132.802 368.5,129.5C 368.43,128.228 368.097,127.062 367.5,126C 370.684,119.248 373.684,112.414 376.5,105.5 Z"/></g>
<g><path style="opacity:1" fill="#fd3131" d="M 44.5,105.5 C 44.1236,112.092 45.1236,118.425 47.5,124.5C 47.4734,127.23 48.1401,129.73 49.5,132C 49.3552,133.226 49.0219,134.393 48.5,135.5C 49.6912,135.405 51.0245,135.738 52.5,136.5C 52.9666,139.297 54.6333,140.631 57.5,140.5C 57.5,141.5 57.5,142.5 57.5,143.5C 56.1667,143.5 54.8333,143.5 53.5,143.5C 43.0079,142.67 32.3412,142.17 21.5,142C 20.5,141 19.5,140 18.5,139C 22.0342,136.069 24.7008,132.569 26.5,128.5C 29.6899,123.264 31.6899,117.597 32.5,111.5C 33.3007,109.958 33.634,108.292 33.5,106.5C 33.5,106.167 33.5,105.833 33.5,105.5C 34.8571,104.41 35.8571,103.076 36.5,101.5C 37.9892,99.8839 38.9892,97.8839 39.5,95.5C 39.358,97.8901 39.858,100.223 41,102.5C 41.6667,101.833 42.3333,101.167 43,100.5C 44.0086,102.025 44.5086,103.692 44.5,105.5 Z"/></g>
<g><path style="opacity:1" fill="#f4897f" d="M 87.5,117.5 C 89.0814,119.674 90.5814,122.007 92,124.5C 92.5022,127.513 93.0022,130.513 93.5,133.5C 90.929,128.463 88.929,123.129 87.5,117.5 Z"/></g>
<g><path style="opacity:1" fill="#f46058" d="M 263.5,122.5 C 261.906,125.764 259.573,128.431 256.5,130.5C 255.673,125.078 258.007,122.411 263.5,122.5 Z"/></g>
<g><path style="opacity:1" fill="#eb554d" d="M 31.5,111.5 C 31.8333,111.5 32.1667,111.5 32.5,111.5C 31.6899,117.597 29.6899,123.264 26.5,128.5C 26.1667,128.5 25.8333,128.5 25.5,128.5C 25.5,127.833 25.5,127.167 25.5,126.5C 26.5969,123.314 27.9303,120.314 29.5,117.5C 31.2132,116.365 31.8799,114.698 31.5,112.5C 31.5,112.167 31.5,111.833 31.5,111.5 Z"/></g>
<g><path style="opacity:1" fill="#f0746e" d="M 121.5,119.5 C 123.346,122.54 124.679,125.873 125.5,129.5C 122.569,126.987 121.235,123.653 121.5,119.5 Z"/></g>
<g><path style="opacity:1" fill="#f07e76" d="M 613.5,120.5 C 615.09,120.628 616.423,121.295 617.5,122.5C 620.626,126.61 623.293,130.943 625.5,135.5C 620.79,131.087 616.79,126.087 613.5,120.5 Z"/></g>
<g><path style="opacity:1" fill="#ed726d" d="M 553.5,120.5 C 553.833,120.5 554.167,120.5 554.5,120.5C 554.665,123.85 554.498,127.183 554,130.5C 553.722,131.416 553.222,132.082 552.5,132.5C 552.5,131.5 552.5,130.5 552.5,129.5C 552.368,126.43 552.701,123.43 553.5,120.5 Z"/></g>
<g><path style="opacity:0.541" fill="#f9a19d" d="M 25.5,126.5 C 25.5,127.167 25.5,127.833 25.5,128.5C 24.5,130.167 23.1667,131.5 21.5,132.5C 22.4486,130.223 23.7819,128.223 25.5,126.5 Z"/></g>
<g><path style="opacity:1" fill="#f5807a" d="M 256.5,130.5 C 255.415,132.587 253.749,133.92 251.5,134.5C 251.167,134.5 250.833,134.5 250.5,134.5C 251.446,131.687 253.446,130.354 256.5,130.5 Z"/></g>
<g><path style="opacity:1" fill="#fb3835" d="M 315.5,83.5 C 315.105,89.7616 315.772,95.7616 317.5,101.5C 317.156,106.122 317.823,110.455 319.5,114.5C 320.451,115.919 320.784,117.585 320.5,119.5C 320.345,122.716 321.345,125.383 323.5,127.5C 325.216,131.603 327.883,134.936 331.5,137.5C 333.381,140.129 336.047,141.463 339.5,141.5C 334.04,142.829 328.207,143.496 322,143.5C 315.793,143.496 309.96,142.829 304.5,141.5C 307.167,138.383 309.001,134.716 310,130.5C 312.139,108.557 312.972,86.5573 312.5,64.5C 312.5,64.1667 312.5,63.8333 312.5,63.5C 313.302,62.0484 313.802,60.3817 314,58.5C 314.171,67.0101 314.671,75.3434 315.5,83.5 Z"/></g>
<g><path style="opacity:1" fill="#e96360" d="M 565.5,125.5 C 566.167,125.833 566.833,126.167 567.5,126.5C 568.441,128.05 569.107,129.716 569.5,131.5C 568.5,131.5 567.5,131.5 566.5,131.5C 566.483,129.435 566.15,127.435 565.5,125.5 Z"/></g>
<g><path style="opacity:0.729" fill="#f79d97" d="M 569.5,131.5 C 570.906,131.973 571.573,132.973 571.5,134.5C 570.094,134.027 569.427,133.027 569.5,131.5 Z"/></g>
<g><path style="opacity:0.714" fill="#faa8a2" d="M 234.5,131.5 C 233.585,133.754 232.252,135.754 230.5,137.5C 227.743,139.086 224.743,140.086 221.5,140.5C 218.941,140.802 216.607,140.468 214.5,139.5C 218.605,139.766 222.605,139.266 226.5,138C 229.331,135.999 231.997,133.833 234.5,131.5 Z"/></g>
<g><path style="opacity:1" fill="#f3615c" d="M 47.5,124.5 C 47.8333,124.5 48.1667,124.5 48.5,124.5C 49.8307,127.829 51.164,131.162 52.5,134.5C 52.5,135.167 52.5,135.833 52.5,136.5C 51.0245,135.738 49.6912,135.405 48.5,135.5C 49.0219,134.393 49.3552,133.226 49.5,132C 48.1401,129.73 47.4734,127.23 47.5,124.5 Z"/></g>
<g><path style="opacity:0.643" fill="#fcaba9" d="M 307.5,130.5 C 307.946,133.01 307.28,135.01 305.5,136.5C 305.875,134.302 306.542,132.302 307.5,130.5 Z"/></g>
<g><path style="opacity:0.808" fill="#f08985" d="M 21.5,132.5 C 20.8333,135.167 19.1667,136.833 16.5,137.5C 17.8333,135.5 19.5,133.833 21.5,132.5 Z"/></g>
<g><path style="opacity:0.675" fill="#feb4af" d="M 52.5,134.5 C 54.5,135.833 56.1667,137.5 57.5,139.5C 55.5887,138.925 53.922,137.925 52.5,136.5C 52.5,135.833 52.5,135.167 52.5,134.5 Z"/></g>
<g><path style="opacity:0.118" fill="#fcbbba" d="M 127.5,134.5 C 128.401,135.29 129.068,136.29 129.5,137.5C 127.952,137.179 127.285,136.179 127.5,134.5 Z"/></g>
<g><path style="opacity:1" fill="#ea635f" d="M 209.5,133.5 C 210.167,134.5 210.833,135.5 211.5,136.5C 212.272,137.694 213.272,138.694 214.5,139.5C 216.607,140.468 218.941,140.802 221.5,140.5C 219.393,141.468 217.059,141.802 214.5,141.5C 211.203,139.867 209.536,137.2 209.5,133.5 Z"/></g>
<g><path style="opacity:0.992" fill="#f7958d" d="M 250.5,134.5 C 250.833,134.5 251.167,134.5 251.5,134.5C 248.992,136.924 245.992,138.59 242.5,139.5C 242.804,138.85 243.137,138.183 243.5,137.5C 245.924,136.648 248.258,135.648 250.5,134.5 Z"/></g>
<g><path style="opacity:1" fill="#ef726b" d="M 125.5,129.5 C 126.537,130.93 127.204,132.597 127.5,134.5C 127.285,136.179 127.952,137.179 129.5,137.5C 132.744,138.463 135.744,139.796 138.5,141.5C 138.737,142.791 138.404,143.791 137.5,144.5C 137.715,142.821 137.048,141.821 135.5,141.5C 132.594,140.213 129.594,139.213 126.5,138.5C 126.296,135.482 125.963,132.482 125.5,129.5 Z"/></g>
<g><path style="opacity:1" fill="#ed847d" d="M 359.5,136.5 C 361.19,136.856 362.19,137.856 362.5,139.5C 363.062,142.773 364.729,143.773 367.5,142.5C 367.278,145.076 365.945,145.91 363.5,145C 361.303,142.579 359.97,139.745 359.5,136.5 Z"/></g>
<g><path style="opacity:0.694" fill="#f5aba7" d="M 369.5,135.5 C 369.279,138.067 368.612,140.401 367.5,142.5C 367.338,140.473 367.505,138.473 368,136.5C 368.383,135.944 368.883,135.611 369.5,135.5 Z"/></g>
<g><path style="opacity:0.663" fill="#f39c99" d="M 16.5,137.5 C 16.0269,138.906 15.0269,139.573 13.5,139.5C 13.9731,138.094 14.9731,137.427 16.5,137.5 Z"/></g>
<g><path style="opacity:0.596" fill="#fbaeae" d="M 93.5,137.5 C 93.0269,138.906 92.0269,139.573 90.5,139.5C 90.9731,138.094 91.9731,137.427 93.5,137.5 Z"/></g>
<g><path style="opacity:1" fill="#fc3633" d="M 562.5,107.5 C 563.675,111.042 564.341,114.709 564.5,118.5C 564.674,120.861 565.007,123.194 565.5,125.5C 566.15,127.435 566.483,129.435 566.5,131.5C 567.5,131.5 568.5,131.5 569.5,131.5C 569.427,133.027 570.094,134.027 571.5,134.5C 571.539,135.583 571.873,136.583 572.5,137.5C 575.661,140.248 579.327,141.581 583.5,141.5C 571.545,143.48 559.212,144.146 546.5,143.5C 547.373,141.114 548.873,139.114 551,137.5C 551.608,135.846 552.108,134.179 552.5,132.5C 553.222,132.082 553.722,131.416 554,130.5C 554.498,127.183 554.665,123.85 554.5,120.5C 556.136,110.506 557.303,100.173 558,89.5C 558.587,95.8494 560.087,101.849 562.5,107.5 Z"/></g>
<g><path style="opacity:1" fill="#ee7269" d="M 625.5,135.5 C 628.966,135.968 630.632,137.968 630.5,141.5C 628.11,140.109 626.443,138.109 625.5,135.5 Z"/></g>
<g><path style="opacity:1" fill="#f8938e" d="M 331.5,137.5 C 334.744,138.463 337.744,139.796 340.5,141.5C 340.167,141.5 339.833,141.5 339.5,141.5C 336.047,141.463 333.381,140.129 331.5,137.5 Z"/></g>
<g><path style="opacity:1" fill="#f33736" d="M 25.5,128.5 C 25.8333,128.5 26.1667,128.5 26.5,128.5C 24.7008,132.569 22.0342,136.069 18.5,139C 19.5,140 20.5,141 21.5,142C 32.3412,142.17 43.0079,142.67 53.5,143.5C 38.8333,143.5 24.1667,143.5 9.5,143.5C 10.6252,142 11.9586,140.667 13.5,139.5C 15.0269,139.573 16.0269,138.906 16.5,137.5C 19.1667,136.833 20.8333,135.167 21.5,132.5C 23.1667,131.5 24.5,130.167 25.5,128.5 Z"/></g>
<g><path style="opacity:0.016" fill="#fbdab1" d="M 58.5,139.5 C 59.9952,139.989 61.3285,140.655 62.5,141.5C 60.5168,141.843 59.1834,141.176 58.5,139.5 Z"/></g>
<g><path style="opacity:0.482" fill="#fdbbb3" d="M 90.5,139.5 C 90.0269,140.906 89.0269,141.573 87.5,141.5C 87.9731,140.094 88.9731,139.427 90.5,139.5 Z"/></g>
<g><path style="opacity:1" fill="#ef403e" d="M 93.5,133.5 C 94.6491,133.791 95.3158,134.624 95.5,136C 94.9233,138.137 94.59,140.304 94.5,142.5C 107.36,142.214 120.193,142.547 133,143.5C 134.376,143.316 135.209,142.649 135.5,141.5C 137.048,141.821 137.715,142.821 137.5,144.5C 126.167,144.5 114.833,144.5 103.5,144.5C 98.1667,144.5 92.8333,144.5 87.5,144.5C 87.5,143.5 87.5,142.5 87.5,141.5C 89.0269,141.573 90.0269,140.906 90.5,139.5C 92.0269,139.573 93.0269,138.906 93.5,137.5C 93.5,136.167 93.5,134.833 93.5,133.5 Z"/></g>
<g><path style="opacity:1" fill="#f17d76" d="M 571.5,134.5 C 575.74,137.118 580.074,139.452 584.5,141.5C 584.167,141.5 583.833,141.5 583.5,141.5C 579.327,141.581 575.661,140.248 572.5,137.5C 571.873,136.583 571.539,135.583 571.5,134.5 Z"/></g>
<g><path style="opacity:0.055" fill="#fdc3bf" d="M 235.5,140.5 C 236.833,140.5 238.167,140.5 239.5,140.5C 235.837,142.416 231.837,143.416 227.5,143.5C 230.087,142.251 232.754,141.251 235.5,140.5 Z"/></g>
<g><path style="opacity:0.925" fill="#eb9a98" d="M 13.5,139.5 C 11.9586,140.667 10.6252,142 9.5,143.5C 8.83333,143.5 8.5,143.833 8.5,144.5C 7.34732,143.687 7.34732,142.687 8.5,141.5C 10.0217,140.438 11.6883,139.771 13.5,139.5 Z"/></g>
<g><path style="opacity:1" fill="#e93d3b" d="M 476.5,33.5 C 477.332,66.6642 477.832,99.9975 478,133.5C 478.273,135.101 478.773,136.601 479.5,138C 476.317,139.75 472.984,141.083 469.5,142C 480.008,142.17 490.341,142.67 500.5,143.5C 489.162,143.667 477.828,143.5 466.5,143C 467.056,142.617 467.389,142.117 467.5,141.5C 468.5,141.167 469.167,140.5 469.5,139.5C 470.93,138.463 472.597,137.796 474.5,137.5C 476.493,103.183 477.16,68.5161 476.5,33.5 Z"/></g>
<g><path style="opacity:0.969" fill="#d64544" d="M 52.5,136.5 C 53.922,137.925 55.5887,138.925 57.5,139.5C 57.8333,139.5 58.1667,139.5 58.5,139.5C 59.1834,141.176 60.5168,141.843 62.5,141.5C 62.8039,142.15 63.1373,142.817 63.5,143.5C 45.1788,144.5 26.8454,144.833 8.5,144.5C 8.5,143.833 8.83333,143.5 9.5,143.5C 24.1667,143.5 38.8333,143.5 53.5,143.5C 54.8333,143.5 56.1667,143.5 57.5,143.5C 57.5,142.5 57.5,141.5 57.5,140.5C 54.6333,140.631 52.9666,139.297 52.5,136.5 Z"/></g>
<g><path style="opacity:1" fill="#e04442" d="M 180.5,137.5 C 179.2,138.827 177.867,140.16 176.5,141.5C 177.025,142.192 177.692,142.692 178.5,143C 184.5,143.167 190.5,143.333 196.5,143.5C 202.872,143.496 208.872,142.829 214.5,141.5C 217.059,141.802 219.393,141.468 221.5,140.5C 224.743,140.086 227.743,139.086 230.5,137.5C 230.047,138.458 229.381,139.292 228.5,140C 230.81,140.497 233.143,140.663 235.5,140.5C 232.754,141.251 230.087,142.251 227.5,143.5C 227.167,143.5 226.833,143.5 226.5,143.5C 208.18,144.333 189.846,144.666 171.5,144.5C 171.5,143.5 171.5,142.5 171.5,141.5C 173.38,141.771 174.713,141.104 175.5,139.5C 176.93,138.463 178.597,137.796 180.5,137.5 Z"/></g>
<g><path style="opacity:1" fill="#e04b48" d="M 424.5,137.5 C 424.833,137.5 425.167,137.5 425.5,137.5C 428.686,138.597 431.686,139.93 434.5,141.5C 434.5,142.5 434.5,143.5 434.5,144.5C 417.833,144.5 401.167,144.5 384.5,144.5C 384.285,142.821 384.952,141.821 386.5,141.5C 386.389,142.117 386.056,142.617 385.5,143C 400.844,143.833 416.178,143.666 431.5,142.5C 428.846,141.032 426.513,139.365 424.5,137.5 Z"/></g>
<g><path style="opacity:0.981" fill="#d84946" d="M 512.5,140.5 C 513.492,140.328 514.158,140.662 514.5,141.5C 514.5,142.5 514.5,143.5 514.5,144.5C 497.82,144.833 481.153,144.499 464.5,143.5C 465.005,142.081 466.005,141.415 467.5,141.5C 467.389,142.117 467.056,142.617 466.5,143C 477.828,143.5 489.162,143.667 500.5,143.5C 504.884,143.826 509.217,143.492 513.5,142.5C 513.137,141.817 512.804,141.15 512.5,140.5 Z"/></g>
<g><path style="opacity:0.106" fill="#f9c2c0" d="M 62.5,141.5 C 63.5,141.5 64.5,141.5 65.5,141.5C 65.67,142.822 65.3366,143.989 64.5,145C 45.6621,145.829 26.9955,145.662 8.5,144.5C 26.8454,144.833 45.1788,144.5 63.5,143.5C 63.1373,142.817 62.8039,142.15 62.5,141.5 Z"/></g>
<g><path style="opacity:0.667" fill="#ff9a96" d="M 87.5,141.5 C 87.5,142.5 87.5,143.5 87.5,144.5C 92.8333,144.5 98.1667,144.5 103.5,144.5C 103.5,144.833 103.5,145.167 103.5,145.5C 98.3497,146.651 93.0164,146.817 87.5,146C 86.1991,144.384 86.1991,142.884 87.5,141.5 Z"/></g>
<g><path style="opacity:0.32" fill="#fea8a8" d="M 138.5,141.5 C 140.466,142.255 140.8,143.421 139.5,145C 127.505,145.5 115.505,145.667 103.5,145.5C 103.5,145.167 103.5,144.833 103.5,144.5C 114.833,144.5 126.167,144.5 137.5,144.5C 138.404,143.791 138.737,142.791 138.5,141.5 Z"/></g>
<g><path style="opacity:0.118" fill="#fcc0bd" d="M 175.5,139.5 C 174.713,141.104 173.38,141.771 171.5,141.5C 171.5,142.5 171.5,143.5 171.5,144.5C 189.846,144.666 208.18,144.333 226.5,143.5C 223.695,144.319 220.695,144.819 217.5,145C 201.833,145.667 186.167,145.667 170.5,145C 169.483,143.951 169.316,142.784 170,141.5C 171.725,140.536 173.559,139.869 175.5,139.5 Z"/></g>
<g><path style="opacity:0.319" fill="#fcadad" d="M 304.5,139.5 C 304.5,140.167 304.5,140.833 304.5,141.5C 303.596,142.209 303.263,143.209 303.5,144.5C 315.833,144.5 328.167,144.5 340.5,144.5C 340.5,143.5 340.5,142.5 340.5,141.5C 342.466,142.255 342.8,143.421 341.5,145C 328.171,145.5 314.837,145.667 301.5,145.5C 301.025,142.687 302.025,140.687 304.5,139.5 Z"/></g>
<g><path style="opacity:0.988" fill="#dc4041" d="M 304.5,141.5 C 309.96,142.829 315.793,143.496 322,143.5C 328.207,143.496 334.04,142.829 339.5,141.5C 339.833,141.5 340.167,141.5 340.5,141.5C 340.5,142.5 340.5,143.5 340.5,144.5C 328.167,144.5 315.833,144.5 303.5,144.5C 303.263,143.209 303.596,142.209 304.5,141.5 Z"/></g>
<g><path style="opacity:0.329" fill="#fda8a7" d="M 393.5,137.5 C 391.465,139.195 389.132,140.528 386.5,141.5C 384.952,141.821 384.285,142.821 384.5,144.5C 401.167,144.5 417.833,144.5 434.5,144.5C 434.5,143.5 434.5,142.5 434.5,141.5C 435.434,142.568 435.768,143.901 435.5,145.5C 418.163,145.667 400.83,145.5 383.5,145C 382.167,143.667 382.167,142.333 383.5,141C 386.744,139.53 390.077,138.363 393.5,137.5 Z"/></g>
<g><path style="opacity:0.325" fill="#feb0af" d="M 469.5,139.5 C 469.167,140.5 468.5,141.167 467.5,141.5C 466.005,141.415 465.005,142.081 464.5,143.5C 481.153,144.499 497.82,144.833 514.5,144.5C 514.5,143.5 514.5,142.5 514.5,141.5C 516.104,142.287 516.771,143.62 516.5,145.5C 498.833,145.5 481.167,145.5 463.5,145.5C 463.202,141.347 465.202,139.347 469.5,139.5 Z"/></g>
<g><path style="opacity:0.121" fill="#fdc4bf" d="M 552.5,129.5 C 552.5,130.5 552.5,131.5 552.5,132.5C 552.108,134.179 551.608,135.846 551,137.5C 548.873,139.114 547.373,141.114 546.5,143.5C 558.989,144.495 571.656,144.829 584.5,144.5C 584.5,143.5 584.5,142.5 584.5,141.5C 586.466,142.255 586.8,143.421 585.5,145C 572.167,145.667 558.833,145.667 545.5,145C 545.043,144.586 544.709,144.086 544.5,143.5C 545.761,140.736 547.595,138.403 550,136.5C 550.698,133.996 551.531,131.663 552.5,129.5 Z"/></g>
<g><path style="opacity:0.973" fill="#cf4644" d="M 583.5,141.5 C 583.833,141.5 584.167,141.5 584.5,141.5C 584.5,142.5 584.5,143.5 584.5,144.5C 571.656,144.829 558.989,144.495 546.5,143.5C 559.212,144.146 571.545,143.48 583.5,141.5 Z"/></g>
</svg>
