<?xml version="1.0" encoding="UTF-8"?>
<!DOCTYPE svg PUBLIC "-//W3C//DTD SVG 1.1//EN" "http://www.w3.org/Graphics/SVG/1.1/DTD/svg11.dtd">
<svg xmlns="http://www.w3.org/2000/svg" version="1.1" width="557px" height="420px" style="shape-rendering:geometricPrecision; text-rendering:geometricPrecision; image-rendering:optimizeQuality; fill-rule:evenodd; clip-rule:evenodd" xmlns:xlink="http://www.w3.org/1999/xlink">
<g><path style="opacity:0.736" fill="#fe9f9b" d="M 235.5,17.5 C 276.01,16.2107 316.677,16.2107 357.5,17.5C 359.099,17.2322 360.432,17.5655 361.5,18.5C 331.5,18.5 301.5,18.5 271.5,18.5C 259.678,17.5049 247.678,17.1716 235.5,17.5 Z"/></g>
<g><path style="opacity:0.196" fill="#ffd9d4" d="M 357.5,17.5 C 359.223,16.193 361.057,16.193 363,17.5C 363.433,20.4194 362.933,23.086 361.5,25.5C 361.5,23.1667 361.5,20.8333 361.5,18.5C 360.432,17.5655 359.099,17.2322 357.5,17.5 Z"/></g>
<g><path style="opacity:0.51" fill="#f7a096" d="M 235.5,17.5 C 235.741,19.8984 235.074,21.8984 233.5,23.5C 233.259,21.1016 233.926,19.1016 235.5,17.5 Z"/></g>
<g><path style="opacity:0.608" fill="#faafaa" d="M 233.5,23.5 C 233.59,26.1522 232.924,28.4855 231.5,30.5C 231.41,27.8478 232.076,25.5145 233.5,23.5 Z"/></g>
<g><path style="opacity:1" fill="#ed736c" d="M 361.5,25.5 C 358.485,27.6744 355.151,29.3411 351.5,30.5C 351.389,29.8826 351.056,29.3826 350.5,29C 353.908,27.0041 357.575,25.8374 361.5,25.5 Z"/></g>
<g><path style="opacity:1" fill="#fe3131" d="M 271.5,18.5 C 301.5,18.5 331.5,18.5 361.5,18.5C 361.5,20.8333 361.5,23.1667 361.5,25.5C 357.575,25.8374 353.908,27.0041 350.5,29C 351.056,29.3826 351.389,29.8826 351.5,30.5C 349.5,30.5 347.5,30.5 345.5,30.5C 345.5,31.5 345.5,32.5 345.5,33.5C 338.645,33.6201 333.645,35.9534 330.5,40.5C 329.167,41.5 329.167,42.5 330.5,43.5C 330.235,47.6533 331.569,50.9867 334.5,53.5C 334.235,57.6533 335.569,60.9867 338.5,63.5C 338.235,67.6533 339.569,70.9867 342.5,73.5C 341.75,77.7754 343.083,81.1087 346.5,83.5C 346.235,87.6533 347.569,90.9867 350.5,93.5C 350.235,97.6533 351.569,100.987 354.5,103.5C 354.696,109.323 356.696,114.323 360.5,118.5C 360.235,122.653 361.569,125.987 364.5,128.5C 364.235,132.653 365.569,135.987 368.5,138.5C 368.235,142.653 369.569,145.987 372.5,148.5C 372.235,152.653 373.569,155.987 376.5,158.5C 376.12,160.698 376.787,162.365 378.5,163.5C 378.235,167.653 379.569,170.987 382.5,173.5C 382.235,177.653 383.569,180.987 386.5,183.5C 386.5,183.833 386.5,184.167 386.5,184.5C 388.02,189.893 389.854,195.226 392,200.5C 392.377,201.942 393.21,202.942 394.5,203.5C 394.5,203.833 394.5,204.167 394.5,204.5C 394.502,208.165 395.835,211.165 398.5,213.5C 398.5,213.833 398.5,214.167 398.5,214.5C 399.105,219.032 400.772,223.032 403.5,226.5C 403.77,230.358 405.103,233.691 407.5,236.5C 407.235,240.653 408.569,243.987 411.5,246.5C 411.77,250.358 413.103,253.691 415.5,256.5C 414.75,260.775 416.083,264.109 419.5,266.5C 419.77,270.358 421.103,273.691 423.5,276.5C 423.241,282.521 425.241,287.521 429.5,291.5C 428.75,295.775 430.083,299.109 433.5,301.5C 433.12,303.698 433.787,305.365 435.5,306.5C 435.235,310.653 436.569,313.987 439.5,316.5C 439.235,320.653 440.569,323.987 443.5,326.5C 443.235,330.653 444.569,333.987 447.5,336.5C 448.759,345.031 451.593,353.031 456,360.5C 456.251,362.433 456.751,364.266 457.5,366C 457.167,366.333 456.833,366.667 456.5,367C 461.811,368.495 467.144,369.995 472.5,371.5C 474.249,374.375 476.915,375.708 480.5,375.5C 484.354,376.93 488.021,378.597 491.5,380.5C 492.388,383.054 492.721,385.721 492.5,388.5C 439.167,388.5 385.833,388.5 332.5,388.5C 332.338,386.473 332.505,384.473 333,382.5C 336.587,380.153 339.754,377.487 342.5,374.5C 342.833,373.833 343.167,373.167 343.5,372.5C 345.404,372.262 346.738,371.262 347.5,369.5C 349.027,369.573 350.027,368.906 350.5,367.5C 351.8,366.173 353.133,364.84 354.5,363.5C 353.754,362.264 353.421,360.93 353.5,359.5C 353.693,356.189 352.693,353.522 350.5,351.5C 350.572,347.311 349.739,343.311 348,339.5C 347.329,338.748 346.496,338.414 345.5,338.5C 345.923,336.219 345.256,334.552 343.5,333.5C 343.5,333.167 343.5,332.833 343.5,332.5C 343.923,330.219 343.256,328.552 341.5,327.5C 341.39,322.378 340.056,317.712 337.5,313.5C 336.543,308.644 334.543,304.31 331.5,300.5C 330.463,299.07 329.796,297.403 329.5,295.5C 329.584,291.669 328.917,288.002 327.5,284.5C 325.184,279.73 324.018,274.73 324,269.5C 324.654,270.696 325.154,270.696 325.5,269.5C 323.496,263.66 319.496,260.16 313.5,259C 314.416,258.722 315.082,258.222 315.5,257.5C 315.649,254.393 315.149,251.393 314,248.5C 313.329,247.748 312.496,247.414 311.5,247.5C 312.119,243.014 310.785,239.347 307.5,236.5C 308.028,232.071 306.695,228.404 303.5,225.5C 302.662,225.158 302.328,224.492 302.5,223.5C 302.975,220.918 302.308,218.918 300.5,217.5C 299.899,214.032 298.899,210.699 297.5,207.5C 297.674,203.64 296.341,200.64 293.5,198.5C 293.923,196.219 293.256,194.552 291.5,193.5C 292.047,188.965 290.714,185.298 287.5,182.5C 287.533,178.258 286.199,174.591 283.5,171.5C 281.733,169.208 280.733,166.542 280.5,163.5C 280.448,160.654 279.448,158.32 277.5,156.5C 277.5,156.167 277.5,155.833 277.5,155.5C 277.598,153.447 276.931,151.78 275.5,150.5C 276.119,146.014 274.785,142.347 271.5,139.5C 271.118,135.668 269.785,132.335 267.5,129.5C 267.5,129.167 267.5,128.833 267.5,128.5C 267.598,126.447 266.931,124.78 265.5,123.5C 264.596,122.791 264.263,121.791 264.5,120.5C 264.397,117.364 263.397,114.698 261.5,112.5C 260.463,111.07 259.796,109.403 259.5,107.5C 259.741,105.102 259.074,103.102 257.5,101.5C 256.662,101.158 256.328,100.492 256.5,99.5C 256.693,96.1889 255.693,93.5223 253.5,91.5C 253.196,88.4781 252.696,85.4781 252,82.5C 250.09,79.6496 248.924,76.4829 248.5,73C 247.629,71.6362 246.629,70.4695 245.5,69.5C 245.675,67.3792 245.341,65.3792 244.5,63.5C 244.658,60.6391 243.992,57.9724 242.5,55.5C 243.046,53.8653 243.38,52.1986 243.5,50.5C 242.5,50.5 241.5,50.5 240.5,50.5C 240.523,48.4004 239.856,46.5671 238.5,45C 239.582,41.7816 238.582,40.4483 235.5,41C 236.381,39.207 235.714,38.5403 233.5,39C 234.634,40.016 234.301,40.6827 232.5,41C 235.167,41.6667 235.167,42.3333 232.5,43C 233.517,44.0495 233.684,45.2161 233,46.5C 231.684,43.3117 231.184,39.9783 231.5,36.5C 234.406,30.8813 236.072,24.8813 236.5,18.5C 248.167,18.5 259.833,18.5 271.5,18.5 Z"/></g>
<g><path style="opacity:1" fill="#ed4e4c" d="M 235.5,17.5 C 247.678,17.1716 259.678,17.5049 271.5,18.5C 259.833,18.5 248.167,18.5 236.5,18.5C 236.072,24.8813 234.406,30.8813 231.5,36.5C 230.833,37.1667 230.167,37.8333 229.5,38.5C 229.565,35.5718 230.232,32.9052 231.5,30.5C 232.924,28.4855 233.59,26.1522 233.5,23.5C 235.074,21.8984 235.741,19.8984 235.5,17.5 Z"/></g>
<g><path style="opacity:0.98" fill="#ee736b" d="M 351.5,30.5 C 349.819,32.0075 347.819,33.0075 345.5,33.5C 345.5,32.5 345.5,31.5 345.5,30.5C 347.5,30.5 349.5,30.5 351.5,30.5 Z"/></g>
<g><path style="opacity:1" fill="#f2655f" d="M 345.5,33.5 C 341.549,36.386 337.216,38.7193 332.5,40.5C 331.833,40.5 331.167,40.5 330.5,40.5C 333.645,35.9534 338.645,33.6201 345.5,33.5 Z"/></g>
<g><path style="opacity:1" fill="#f53d3a" d="M 231.5,36.5 C 231.184,39.9783 231.684,43.3117 233,46.5C 233.684,45.2161 233.517,44.0495 232.5,43C 235.167,42.3333 235.167,41.6667 232.5,41C 234.301,40.6827 234.634,40.016 233.5,39C 235.714,38.5403 236.381,39.207 235.5,41C 238.582,40.4483 239.582,41.7816 238.5,45C 239.856,46.5671 240.523,48.4004 240.5,50.5C 241.5,50.5 242.5,50.5 243.5,50.5C 243.38,52.1986 243.046,53.8653 242.5,55.5C 243.992,57.9724 244.658,60.6391 244.5,63.5C 244.167,63.5 243.833,63.5 243.5,63.5C 243.923,61.2188 243.256,59.5521 241.5,58.5C 241.99,54.0494 240.656,50.3828 237.5,47.5C 236.761,47.369 236.094,47.5357 235.5,48C 234.915,49.3024 234.249,50.469 233.5,51.5C 231.102,55.403 229.769,59.7363 229.5,64.5C 229.5,64.8333 229.5,65.1667 229.5,65.5C 226.431,72.7711 224.431,80.4377 223.5,88.5C 223.5,88.8333 223.5,89.1667 223.5,89.5C 221.837,91.4385 221.171,93.7718 221.5,96.5C 221.5,96.8333 221.5,97.1667 221.5,97.5C 219.96,99.8383 219.294,102.505 219.5,105.5C 218.833,106.5 218.167,107.5 217.5,108.5C 216.676,104.688 216.176,100.688 216,96.5C 214.725,100.042 213.225,103.375 211.5,106.5C 211.5,105.167 211.5,103.833 211.5,102.5C 212.924,100.485 213.59,98.1522 213.5,95.5C 214.924,93.4855 215.59,91.1522 215.5,88.5C 215.232,86.901 215.566,85.5676 216.5,84.5C 217.924,82.4855 218.59,80.1522 218.5,77.5C 219.924,75.4855 220.59,73.1522 220.5,70.5C 221.924,68.4855 222.59,66.1522 222.5,63.5C 222.232,61.901 222.566,60.5676 223.5,59.5C 224.924,57.4855 225.59,55.1522 225.5,52.5C 226.924,50.4855 227.59,48.1522 227.5,45.5C 228.924,43.4855 229.59,41.1522 229.5,38.5C 230.167,37.8333 230.833,37.1667 231.5,36.5 Z"/></g>
<g><path style="opacity:0.196" fill="#febeb4" d="M 330.5,40.5 C 331.167,40.5 331.833,40.5 332.5,40.5C 331.449,41.2223 330.782,42.2223 330.5,43.5C 329.167,42.5 329.167,41.5 330.5,40.5 Z"/></g>
<g><path style="opacity:0.745" fill="#f79996" d="M 229.5,38.5 C 229.59,41.1522 228.924,43.4855 227.5,45.5C 227.41,42.8478 228.076,40.5145 229.5,38.5 Z"/></g>
<g><path style="opacity:0.702" fill="#f6a2a7" d="M 227.5,45.5 C 227.59,48.1522 226.924,50.4855 225.5,52.5C 225.41,49.8478 226.076,47.5145 227.5,45.5 Z"/></g>
<g><path style="opacity:1" fill="#f1746d" d="M 330.5,43.5 C 332.346,46.54 333.679,49.8733 334.5,53.5C 331.569,50.9867 330.235,47.6533 330.5,43.5 Z"/></g>
<g><path style="opacity:0.992" fill="#f4908a" d="M 237.5,47.5 C 240.656,50.3828 241.99,54.0494 241.5,58.5C 239.796,55.0615 238.462,51.3948 237.5,47.5 Z"/></g>
<g><path style="opacity:0.369" fill="#fcb8b6" d="M 233.5,51.5 C 232.612,56.0719 231.279,60.4052 229.5,64.5C 229.769,59.7363 231.102,55.403 233.5,51.5 Z"/></g>
<g><path style="opacity:0.663" fill="#f8a7a4" d="M 225.5,52.5 C 225.59,55.1522 224.924,57.4855 223.5,59.5C 223.41,56.8478 224.076,54.5145 225.5,52.5 Z"/></g>
<g><path style="opacity:0.976" fill="#f0837d" d="M 241.5,58.5 C 243.256,59.5521 243.923,61.2188 243.5,63.5C 242.069,62.2196 241.402,60.5529 241.5,58.5 Z"/></g>
<g><path style="opacity:1" fill="#f47470" d="M 334.5,53.5 C 336.346,56.54 337.679,59.8733 338.5,63.5C 335.569,60.9867 334.235,57.6533 334.5,53.5 Z"/></g>
<g><path style="opacity:0.835" fill="#f18d88" d="M 243.5,63.5 C 243.833,63.5 244.167,63.5 244.5,63.5C 245.341,65.3792 245.675,67.3792 245.5,69.5C 244.262,67.7857 243.595,65.7857 243.5,63.5 Z"/></g>
<g><path style="opacity:0.553" fill="#faada8" d="M 229.5,65.5 C 227.944,73.3936 225.944,81.0602 223.5,88.5C 224.431,80.4377 226.431,72.7711 229.5,65.5 Z"/></g>
<g><path style="opacity:0.569" fill="#f6a29f" d="M 222.5,63.5 C 222.59,66.1522 221.924,68.4855 220.5,70.5C 220.41,67.8478 221.076,65.5145 222.5,63.5 Z"/></g>
<g><path style="opacity:1" fill="#f47270" d="M 338.5,63.5 C 340.346,66.54 341.679,69.8733 342.5,73.5C 339.569,70.9867 338.235,67.6533 338.5,63.5 Z"/></g>
<g><path style="opacity:1" fill="#f48b85" d="M 245.5,69.5 C 246.629,70.4695 247.629,71.6362 248.5,73C 248.924,76.4829 250.09,79.6496 252,82.5C 252.696,85.4781 253.196,88.4781 253.5,91.5C 250.262,84.4594 247.595,77.1261 245.5,69.5 Z"/></g>
<g><path style="opacity:0.533" fill="#fbaaa7" d="M 220.5,70.5 C 220.59,73.1522 219.924,75.4855 218.5,77.5C 218.41,74.8478 219.076,72.5145 220.5,70.5 Z"/></g>
<g><path style="opacity:0.973" fill="#ec7b72" d="M 342.5,73.5 C 344.346,76.54 345.679,79.8733 346.5,83.5C 343.083,81.1087 341.75,77.7754 342.5,73.5 Z"/></g>
<g><path style="opacity:0.486" fill="#fdafae" d="M 218.5,77.5 C 218.59,80.1522 217.924,82.4855 216.5,84.5C 216.41,81.8478 217.076,79.5145 218.5,77.5 Z"/></g>
<g><path style="opacity:0.702" fill="#f8a29e" d="M 215.5,88.5 C 215.59,91.1522 214.924,93.4855 213.5,95.5C 213.41,92.8478 214.076,90.5145 215.5,88.5 Z"/></g>
<g><path style="opacity:1" fill="#f3746f" d="M 346.5,83.5 C 348.346,86.54 349.679,89.8733 350.5,93.5C 347.569,90.9867 346.235,87.6533 346.5,83.5 Z"/></g>
<g><path style="opacity:0.098" fill="#fbbcbe" d="M 223.5,89.5 C 223.59,92.1522 222.924,94.4855 221.5,96.5C 221.171,93.7718 221.837,91.4385 223.5,89.5 Z"/></g>
<g><path style="opacity:0.396" fill="#f9a2a0" d="M 253.5,91.5 C 255.693,93.5223 256.693,96.1889 256.5,99.5C 255.129,97.064 254.129,94.3973 253.5,91.5 Z"/></g>
<g><path style="opacity:0.663" fill="#f9a9a2" d="M 213.5,95.5 C 213.59,98.1522 212.924,100.485 211.5,102.5C 211.41,99.8478 212.076,97.5145 213.5,95.5 Z"/></g>
<g><path style="opacity:0.004" fill="#ffd3d0" d="M 221.5,97.5 C 221.435,100.428 220.768,103.095 219.5,105.5C 219.294,102.505 219.96,99.8383 221.5,97.5 Z"/></g>
<g><path style="opacity:1" fill="#f57771" d="M 350.5,93.5 C 352.346,96.54 353.679,99.8733 354.5,103.5C 351.569,100.987 350.235,97.6533 350.5,93.5 Z"/></g>
<g><path style="opacity:0.42" fill="#fbaead" d="M 257.5,101.5 C 259.074,103.102 259.741,105.102 259.5,107.5C 258.262,105.786 257.595,103.786 257.5,101.5 Z"/></g>
<g><path style="opacity:0.886" fill="#f29892" d="M 211.5,102.5 C 211.5,103.833 211.5,105.167 211.5,106.5C 210.677,108.987 209.677,111.321 208.5,113.5C 208.926,109.573 209.926,105.907 211.5,102.5 Z"/></g>
<g><path style="opacity:0.008" fill="#fdcecb" d="M 219.5,105.5 C 219.324,108.727 218.657,111.727 217.5,114.5C 217.5,114.167 217.5,113.833 217.5,113.5C 217.5,111.833 217.5,110.167 217.5,108.5C 218.167,107.5 218.833,106.5 219.5,105.5 Z"/></g>
<g><path style="opacity:0.808" fill="#f58984" d="M 354.5,103.5 C 356.871,108.265 358.871,113.265 360.5,118.5C 356.696,114.323 354.696,109.323 354.5,103.5 Z"/></g>
<g><path style="opacity:0.271" fill="#fbada2" d="M 261.5,112.5 C 263.397,114.698 264.397,117.364 264.5,120.5C 262.733,118.208 261.733,115.542 261.5,112.5 Z"/></g>
<g><path style="opacity:0.529" fill="#fda8a3" d="M 208.5,113.5 C 208.59,116.152 207.924,118.485 206.5,120.5C 206.41,117.848 207.076,115.515 208.5,113.5 Z"/></g>
<g><path style="opacity:0.106" fill="#fcc5c5" d="M 215.5,124.5 C 215.435,127.428 214.768,130.095 213.5,132.5C 213.294,129.505 213.96,126.838 215.5,124.5 Z"/></g>
<g><path style="opacity:0.463" fill="#fcb0ac" d="M 206.5,120.5 C 206.59,123.152 205.924,125.485 204.5,127.5C 204.41,124.848 205.076,122.515 206.5,120.5 Z"/></g>
<g><path style="opacity:0.294" fill="#fdb9b7" d="M 265.5,123.5 C 266.931,124.78 267.598,126.447 267.5,128.5C 266.069,127.22 265.402,125.553 265.5,123.5 Z"/></g>
<g><path style="opacity:1" fill="#f57872" d="M 360.5,118.5 C 362.346,121.54 363.679,124.873 364.5,128.5C 361.569,125.987 360.235,122.653 360.5,118.5 Z"/></g>
<g><path style="opacity:0.408" fill="#fcb8b4" d="M 267.5,129.5 C 269.785,132.335 271.118,135.668 271.5,139.5C 269.6,136.482 268.267,133.149 267.5,129.5 Z"/></g>
<g><path style="opacity:0.667" fill="#f9a9a3" d="M 203.5,131.5 C 203.59,134.152 202.924,136.485 201.5,138.5C 201.41,135.848 202.076,133.515 203.5,131.5 Z"/></g>
<g><path style="opacity:1" fill="#f0665b" d="M 217.5,113.5 C 217.5,113.833 217.5,114.167 217.5,114.5C 217.46,117.988 216.793,121.321 215.5,124.5C 213.96,126.838 213.294,129.505 213.5,132.5C 212.778,132.918 212.278,133.584 212,134.5C 211.502,137.482 211.335,140.482 211.5,143.5C 211.471,147.64 210.804,151.64 209.5,155.5C 208.833,156.833 208.167,158.167 207.5,159.5C 208.733,144.134 211.566,129.134 216,114.5C 216.383,113.944 216.883,113.611 217.5,113.5 Z"/></g>
<g><path style="opacity:1" fill="#f37972" d="M 364.5,128.5 C 366.346,131.54 367.679,134.873 368.5,138.5C 365.569,135.987 364.235,132.653 364.5,128.5 Z"/></g>
<g><path style="opacity:0.659" fill="#ef9c97" d="M 213.5,132.5 C 213.57,136.425 212.903,140.091 211.5,143.5C 211.335,140.482 211.502,137.482 212,134.5C 212.278,133.584 212.778,132.918 213.5,132.5 Z"/></g>
<g><path style="opacity:0.608" fill="#fbb3a9" d="M 201.5,138.5 C 201.59,141.152 200.924,143.485 199.5,145.5C 199.41,142.848 200.076,140.515 201.5,138.5 Z"/></g>
<g><path style="opacity:1" fill="#f38c82" d="M 271.5,139.5 C 274.785,142.347 276.119,146.014 275.5,150.5C 273.792,147.05 272.459,143.383 271.5,139.5 Z"/></g>
<g><path style="opacity:1" fill="#f37a75" d="M 368.5,138.5 C 370.346,141.54 371.679,144.873 372.5,148.5C 369.569,145.987 368.235,142.653 368.5,138.5 Z"/></g>
<g><path style="opacity:0.271" fill="#ffc1bc" d="M 275.5,150.5 C 276.931,151.78 277.598,153.447 277.5,155.5C 276.069,154.22 275.402,152.553 275.5,150.5 Z"/></g>
<g><path style="opacity:1" fill="#f17a72" d="M 372.5,148.5 C 374.346,151.54 375.679,154.873 376.5,158.5C 373.569,155.987 372.235,152.653 372.5,148.5 Z"/></g>
<g><path style="opacity:0.02" fill="#fcc8bf" d="M 209.5,155.5 C 209.354,159.387 208.687,163.054 207.5,166.5C 207.5,164.167 207.5,161.833 207.5,159.5C 208.167,158.167 208.833,156.833 209.5,155.5 Z"/></g>
<g><path style="opacity:0.835" fill="#f9908e" d="M 198.5,149.5 C 198.313,156.021 196.646,162.021 193.5,167.5C 194.565,161.231 196.231,155.231 198.5,149.5 Z"/></g>
<g><path style="opacity:0.302" fill="#feb9b5" d="M 277.5,156.5 C 279.448,158.32 280.448,160.654 280.5,163.5C 278.935,161.491 277.935,159.157 277.5,156.5 Z"/></g>
<g><path style="opacity:0.78" fill="#f9a09e" d="M 376.5,158.5 C 377.537,159.93 378.204,161.597 378.5,163.5C 376.787,162.365 376.12,160.698 376.5,158.5 Z"/></g>
<g><path style="opacity:0.639" fill="#f9aca8" d="M 193.5,167.5 C 193.59,170.152 192.924,172.485 191.5,174.5C 191.41,171.848 192.076,169.515 193.5,167.5 Z"/></g>
<g><path style="opacity:0.029" fill="#fec1bd" d="M 207.5,167.5 C 207.376,172.049 206.709,176.382 205.5,180.5C 205.28,175.9 205.946,171.567 207.5,167.5 Z"/></g>
<g><path style="opacity:1" fill="#f57a74" d="M 378.5,163.5 C 380.346,166.54 381.679,169.873 382.5,173.5C 379.569,170.987 378.235,167.653 378.5,163.5 Z"/></g>
<g><path style="opacity:1" fill="#f68785" d="M 283.5,171.5 C 286.199,174.591 287.533,178.258 287.5,182.5C 285.399,179.203 284.065,175.537 283.5,171.5 Z"/></g>
<g><path style="opacity:0.592" fill="#f9bab6" d="M 191.5,174.5 C 191.741,176.898 191.074,178.898 189.5,180.5C 189.595,178.214 190.262,176.214 191.5,174.5 Z"/></g>
<g><path style="opacity:1" fill="#f67b75" d="M 382.5,173.5 C 384.346,176.54 385.679,179.873 386.5,183.5C 383.569,180.987 382.235,177.653 382.5,173.5 Z"/></g>
<g><path style="opacity:0.592" fill="#f5a8a6" d="M 205.5,181.5 C 205.468,186.391 204.801,191.057 203.5,195.5C 203.335,191.818 203.501,188.152 204,184.5C 204.232,183.263 204.732,182.263 205.5,181.5 Z"/></g>
<g><path style="opacity:1" fill="#f69692" d="M 386.5,184.5 C 389.927,190.431 392.594,196.764 394.5,203.5C 393.21,202.942 392.377,201.942 392,200.5C 389.854,195.226 388.02,189.893 386.5,184.5 Z"/></g>
<g><path style="opacity:1" fill="#ed7f79" d="M 287.5,182.5 C 290.714,185.298 292.047,188.965 291.5,193.5C 289.792,190.05 288.459,186.383 287.5,182.5 Z"/></g>
<g><path style="opacity:0.929" fill="#f38f89" d="M 291.5,193.5 C 293.256,194.552 293.923,196.219 293.5,198.5C 292.069,197.22 291.402,195.553 291.5,193.5 Z"/></g>
<g><path style="opacity:0.643" fill="#f59b94" d="M 188.5,185.5 C 188.43,190.69 187.097,195.357 184.5,199.5C 185.231,194.562 186.565,189.895 188.5,185.5 Z"/></g>
<g><path style="opacity:1" fill="#ec514b" d="M 207.5,159.5 C 207.5,161.833 207.5,164.167 207.5,166.5C 207.5,166.833 207.5,167.167 207.5,167.5C 205.946,171.567 205.28,175.9 205.5,180.5C 205.5,180.833 205.5,181.167 205.5,181.5C 204.732,182.263 204.232,183.263 204,184.5C 203.501,188.152 203.335,191.818 203.5,195.5C 203.81,198.713 203.477,201.713 202.5,204.5C 201.833,207.167 201.167,209.833 200.5,212.5C 200.88,194.487 203.213,176.82 207.5,159.5 Z"/></g>
<g><path style="opacity:0.671" fill="#faaaa5" d="M 184.5,199.5 C 184.59,202.152 183.924,204.485 182.5,206.5C 182.41,203.848 183.076,201.515 184.5,199.5 Z"/></g>
<g><path style="opacity:1" fill="#ed736b" d="M 293.5,198.5 C 296.341,200.64 297.674,203.64 297.5,207.5C 297.167,207.5 296.833,207.5 296.5,207.5C 294.905,204.715 293.905,201.715 293.5,198.5 Z"/></g>
<g><path style="opacity:0.922" fill="#f2928b" d="M 394.5,204.5 C 396.592,207.088 397.925,210.088 398.5,213.5C 395.835,211.165 394.502,208.165 394.5,204.5 Z"/></g>
<g><path style="opacity:0.608" fill="#f9aeab" d="M 182.5,206.5 C 182.472,209.916 181.472,212.916 179.5,215.5C 179.928,212.215 180.928,209.215 182.5,206.5 Z"/></g>
<g><path style="opacity:0.345" fill="#fcbab4" d="M 296.5,207.5 C 296.833,207.5 297.167,207.5 297.5,207.5C 298.899,210.699 299.899,214.032 300.5,217.5C 298.6,214.482 297.267,211.149 296.5,207.5 Z"/></g>
<g><path style="opacity:1" fill="#f5918d" d="M 398.5,214.5 C 400.928,218.099 402.594,222.099 403.5,226.5C 400.772,223.032 399.105,219.032 398.5,214.5 Z"/></g>
<g><path style="opacity:0.988" fill="#f58f85" d="M 300.5,217.5 C 302.308,218.918 302.975,220.918 302.5,223.5C 301.262,221.786 300.595,219.786 300.5,217.5 Z"/></g>
<g><path style="opacity:0.243" fill="#fdb8b6" d="M 202.5,204.5 C 201.118,221.803 200.452,239.136 200.5,256.5C 200.167,256.5 199.833,256.5 199.5,256.5C 199.389,241.82 199.723,227.153 200.5,212.5C 201.167,209.833 201.833,207.167 202.5,204.5 Z"/></g>
<g><path style="opacity:0.537" fill="#f99f9b" d="M 179.5,216.5 C 179.829,219.228 179.163,221.562 177.5,223.5C 177.41,220.848 178.076,218.515 179.5,216.5 Z"/></g>
<g><path style="opacity:0.729" fill="#faaeaa" d="M 177.5,223.5 C 176.943,228.165 175.61,232.498 173.5,236.5C 174.057,231.835 175.39,227.502 177.5,223.5 Z"/></g>
<g><path style="opacity:0.906" fill="#f59793" d="M 403.5,226.5 C 405.4,229.518 406.733,232.851 407.5,236.5C 405.103,233.691 403.77,230.358 403.5,226.5 Z"/></g>
<g><path style="opacity:1" fill="#f38f87" d="M 303.5,225.5 C 306.695,228.404 308.028,232.071 307.5,236.5C 305.399,233.203 304.065,229.537 303.5,225.5 Z"/></g>
<g><path style="opacity:1" fill="#fd3231" d="M 217.5,108.5 C 217.5,110.167 217.5,111.833 217.5,113.5C 216.883,113.611 216.383,113.944 216,114.5C 211.566,129.134 208.733,144.134 207.5,159.5C 203.213,176.82 200.88,194.487 200.5,212.5C 199.723,227.153 199.389,241.82 199.5,256.5C 199.5,256.833 199.5,257.167 199.5,257.5C 234.664,258.333 269.998,258.833 305.5,259C 307.893,261.397 310.56,262.23 313.5,261.5C 314.386,262.325 314.719,263.325 314.5,264.5C 275.833,264.5 237.167,264.5 198.5,264.5C 198.334,272.84 198.5,281.173 199,289.5C 199.278,290.416 199.778,291.082 200.5,291.5C 200.963,294.482 201.296,297.482 201.5,300.5C 201.735,306.849 202.235,313.183 203,319.5C 203.934,320.858 204.768,322.192 205.5,323.5C 205.932,324.71 206.599,325.71 207.5,326.5C 208.301,328.042 208.634,329.708 208.5,331.5C 208.345,334.716 209.345,337.383 211.5,339.5C 211.5,339.833 211.5,340.167 211.5,340.5C 211.833,343.167 212.167,345.833 212.5,348.5C 213.5,348.5 214.5,348.5 215.5,348.5C 215.833,351.167 216.167,353.833 216.5,356.5C 217.5,356.5 218.5,356.5 219.5,356.5C 219.427,358.027 220.094,359.027 221.5,359.5C 222.419,362.089 224.086,364.089 226.5,365.5C 226.525,368.179 227.858,369.512 230.5,369.5C 232.126,373.445 235.126,375.445 239.5,375.5C 239.5,376.5 239.5,377.5 239.5,378.5C 242.734,379.576 246.068,380.243 249.5,380.5C 251.635,382.369 254.302,383.036 257.5,382.5C 257.5,384.167 257.5,385.833 257.5,387.5C 199.833,387.5 142.167,387.5 84.5,387.5C 84.2606,385.533 84.5939,383.699 85.5,382C 90.263,380.078 94.9297,377.911 99.5,375.5C 99.8627,374.817 100.196,374.15 100.5,373.5C 100.833,372.833 101.167,372.167 101.5,371.5C 101.842,370.662 102.508,370.328 103.5,370.5C 105.027,370.573 106.027,369.906 106.5,368.5C 108.027,368.573 109.027,367.906 109.5,366.5C 113.436,364.234 116.769,361.234 119.5,357.5C 121.914,356.089 123.581,354.089 124.5,351.5C 126.262,350.738 127.262,349.404 127.5,347.5C 128.906,347.027 129.573,346.027 129.5,344.5C 130.906,344.027 131.573,343.027 131.5,341.5C 135.417,340.353 137.417,337.686 137.5,333.5C 137.5,332.833 137.5,332.167 137.5,331.5C 138.906,331.027 139.573,330.027 139.5,328.5C 139.5,328.167 139.5,327.833 139.5,327.5C 143.572,324.69 145.572,320.69 145.5,315.5C 148.686,312.311 150.353,308.311 150.5,303.5C 151.79,302.942 152.623,301.942 153,300.5C 154.43,297.647 155.263,294.647 155.5,291.5C 155.5,291.167 155.5,290.833 155.5,290.5C 156.117,290.389 156.617,290.056 157,289.5C 158.816,284.554 160.316,279.554 161.5,274.5C 163.074,272.898 163.741,270.898 163.5,268.5C 166.609,261.501 168.943,254.168 170.5,246.5C 172.605,243.592 173.605,240.258 173.5,236.5C 175.61,232.498 176.943,228.165 177.5,223.5C 179.163,221.562 179.829,219.228 179.5,216.5C 179.5,216.167 179.5,215.833 179.5,215.5C 181.472,212.916 182.472,209.916 182.5,206.5C 183.924,204.485 184.59,202.152 184.5,199.5C 187.097,195.357 188.43,190.69 188.5,185.5C 188.366,183.708 188.699,182.042 189.5,180.5C 191.074,178.898 191.741,176.898 191.5,174.5C 192.924,172.485 193.59,170.152 193.5,167.5C 196.646,162.021 198.313,156.021 198.5,149.5C 198.232,147.901 198.566,146.568 199.5,145.5C 200.924,143.485 201.59,141.152 201.5,138.5C 202.924,136.485 203.59,134.152 203.5,131.5C 203.232,129.901 203.566,128.568 204.5,127.5C 205.924,125.485 206.59,123.152 206.5,120.5C 207.924,118.485 208.59,116.152 208.5,113.5C 209.677,111.321 210.677,108.987 211.5,106.5C 213.225,103.375 214.725,100.042 216,96.5C 216.176,100.688 216.676,104.688 217.5,108.5 Z"/></g>
<g><path style="opacity:1" fill="#f68b84" d="M 307.5,236.5 C 310.785,239.347 312.119,243.014 311.5,247.5C 309.792,244.05 308.459,240.383 307.5,236.5 Z"/></g>
<g><path style="opacity:0.604" fill="#f9a8a6" d="M 173.5,236.5 C 173.605,240.258 172.605,243.592 170.5,246.5C 170.723,242.838 171.723,239.505 173.5,236.5 Z"/></g>
<g><path style="opacity:1" fill="#f06f68" d="M 407.5,236.5 C 409.346,239.54 410.679,242.873 411.5,246.5C 408.569,243.987 407.235,240.653 407.5,236.5 Z"/></g>
<g><path style="opacity:0.714" fill="#fbaca9" d="M 170.5,246.5 C 168.943,254.168 166.609,261.501 163.5,268.5C 165.057,260.832 167.391,253.499 170.5,246.5 Z"/></g>
<g><path style="opacity:0.898" fill="#f69694" d="M 411.5,246.5 C 413.4,249.518 414.733,252.851 415.5,256.5C 413.103,253.691 411.77,250.358 411.5,246.5 Z"/></g>
<g><path style="opacity:0.477" fill="#f28f8d" d="M 311.5,247.5 C 312.496,247.414 313.329,247.748 314,248.5C 315.149,251.393 315.649,254.393 315.5,257.5C 276.833,257.5 238.167,257.5 199.5,257.5C 199.5,257.167 199.5,256.833 199.5,256.5C 199.833,256.5 200.167,256.5 200.5,256.5C 238.168,256.667 275.835,256.5 313.5,256C 313.833,255.667 314.167,255.333 314.5,255C 313.009,252.692 312.009,250.192 311.5,247.5 Z"/></g>
<g><path style="opacity:1" fill="#ec716c" d="M 415.5,256.5 C 417.346,259.54 418.679,262.873 419.5,266.5C 416.083,264.109 414.75,260.775 415.5,256.5 Z"/></g>
<g><path style="opacity:1" fill="#ed3f3c" d="M 199.5,257.5 C 238.167,257.5 276.833,257.5 315.5,257.5C 315.082,258.222 314.416,258.722 313.5,259C 319.496,260.16 323.496,263.66 325.5,269.5C 325.154,270.696 324.654,270.696 324,269.5C 324.018,274.73 325.184,279.73 327.5,284.5C 326.833,284.5 326.167,284.5 325.5,284.5C 324.262,282.786 323.595,280.786 323.5,278.5C 323.598,276.447 322.931,274.78 321.5,273.5C 321.708,271.08 321.374,268.747 320.5,266.5C 280.335,265.169 240.335,265.169 200.5,266.5C 199.28,274.685 199.28,283.018 200.5,291.5C 199.778,291.082 199.278,290.416 199,289.5C 198.5,281.173 198.334,272.84 198.5,264.5C 237.167,264.5 275.833,264.5 314.5,264.5C 314.719,263.325 314.386,262.325 313.5,261.5C 310.56,262.23 307.893,261.397 305.5,259C 269.998,258.833 234.664,258.333 199.5,257.5 Z"/></g>
<g><path style="opacity:0.725" fill="#ec8f8c" d="M 200.5,266.5 C 240.335,265.169 280.335,265.169 320.5,266.5C 321.374,268.747 321.708,271.08 321.5,273.5C 320.262,271.786 319.595,269.786 319.5,267.5C 279.761,267.827 240.094,267.494 200.5,266.5 Z"/></g>
<g><path style="opacity:0.89" fill="#f49993" d="M 419.5,266.5 C 421.4,269.518 422.733,272.851 423.5,276.5C 421.103,273.691 419.77,270.358 419.5,266.5 Z"/></g>
<g><path style="opacity:0.878" fill="#f39b9a" d="M 163.5,268.5 C 163.741,270.898 163.074,272.898 161.5,274.5C 161.259,272.102 161.926,270.102 163.5,268.5 Z"/></g>
<g><path style="opacity:0.243" fill="#fcc0ba" d="M 321.5,273.5 C 322.931,274.78 323.598,276.447 323.5,278.5C 322.069,277.22 321.402,275.553 321.5,273.5 Z"/></g>
<g><path style="opacity:0.714" fill="#f89d9a" d="M 161.5,274.5 C 160.316,279.554 158.816,284.554 157,289.5C 156.617,290.056 156.117,290.389 155.5,290.5C 156.932,284.859 158.932,279.525 161.5,274.5 Z"/></g>
<g><path style="opacity:1" fill="#ee7068" d="M 423.5,276.5 C 425.871,281.265 427.871,286.265 429.5,291.5C 425.241,287.521 423.241,282.521 423.5,276.5 Z"/></g>
<g><path style="opacity:0.82" fill="#fab4b1" d="M 200.5,266.5 C 200.504,277.877 201.171,289.21 202.5,300.5C 202.167,300.5 201.833,300.5 201.5,300.5C 201.296,297.482 200.963,294.482 200.5,291.5C 199.28,283.018 199.28,274.685 200.5,266.5 Z"/></g>
<g><path style="opacity:0.961" fill="#ee8881" d="M 325.5,284.5 C 326.167,284.5 326.833,284.5 327.5,284.5C 328.917,288.002 329.584,291.669 329.5,295.5C 327.796,292.061 326.462,288.395 325.5,284.5 Z"/></g>
<g><path style="opacity:1" fill="#ec7471" d="M 429.5,291.5 C 431.346,294.54 432.679,297.873 433.5,301.5C 430.083,299.109 428.75,295.775 429.5,291.5 Z"/></g>
<g><path style="opacity:0.8" fill="#f79891" d="M 155.5,291.5 C 155.263,294.647 154.43,297.647 153,300.5C 152.623,301.942 151.79,302.942 150.5,303.5C 151.655,299.203 153.321,295.203 155.5,291.5 Z"/></g>
<g><path style="opacity:0.871" fill="#f09592" d="M 433.5,301.5 C 434.537,302.93 435.204,304.597 435.5,306.5C 433.787,305.365 433.12,303.698 433.5,301.5 Z"/></g>
<g><path style="opacity:0.98" fill="#f28d87" d="M 331.5,300.5 C 334.543,304.31 336.543,308.644 337.5,313.5C 337.5,314.5 337.5,315.5 337.5,316.5C 334.929,311.463 332.929,306.129 331.5,300.5 Z"/></g>
<g><path style="opacity:0.922" fill="#f4837f" d="M 150.5,303.5 C 150.353,308.311 148.686,312.311 145.5,315.5C 146.796,311.261 148.462,307.261 150.5,303.5 Z"/></g>
<g><path style="opacity:1" fill="#f0756f" d="M 435.5,306.5 C 437.346,309.54 438.679,312.873 439.5,316.5C 436.569,313.987 435.235,310.653 435.5,306.5 Z"/></g>
<g><path style="opacity:1" fill="#f1726a" d="M 201.5,300.5 C 201.833,300.5 202.167,300.5 202.5,300.5C 203.621,306.777 204.621,313.111 205.5,319.5C 205.5,320.833 205.5,322.167 205.5,323.5C 204.768,322.192 203.934,320.858 203,319.5C 202.235,313.183 201.735,306.849 201.5,300.5 Z"/></g>
<g><path style="opacity:1" fill="#ed7a71" d="M 337.5,313.5 C 340.056,317.712 341.39,322.378 341.5,327.5C 339.399,324.203 338.065,320.537 337.5,316.5C 337.5,315.5 337.5,314.5 337.5,313.5 Z"/></g>
<g><path style="opacity:0.694" fill="#f9b1ab" d="M 205.5,319.5 C 206.612,321.599 207.279,323.933 207.5,326.5C 206.599,325.71 205.932,324.71 205.5,323.5C 205.5,322.167 205.5,320.833 205.5,319.5 Z"/></g>
<g><path style="opacity:1" fill="#ee766d" d="M 439.5,316.5 C 441.346,319.54 442.679,322.873 443.5,326.5C 440.569,323.987 439.235,320.653 439.5,316.5 Z"/></g>
<g><path style="opacity:0.992" fill="#ef7873" d="M 145.5,315.5 C 145.572,320.69 143.572,324.69 139.5,327.5C 140.992,323.182 142.992,319.182 145.5,315.5 Z"/></g>
<g><path style="opacity:0.957" fill="#ef8f88" d="M 341.5,327.5 C 343.256,328.552 343.923,330.219 343.5,332.5C 342.069,331.22 341.402,329.553 341.5,327.5 Z"/></g>
<g><path style="opacity:0.329" fill="#fbaba7" d="M 139.5,328.5 C 139.573,330.027 138.906,331.027 137.5,331.5C 137.427,329.973 138.094,328.973 139.5,328.5 Z"/></g>
<g><path style="opacity:0.18" fill="#ffc7c6" d="M 137.5,331.5 C 137.5,332.167 137.5,332.833 137.5,333.5C 136.833,333.833 136.167,334.167 135.5,334.5C 135.427,332.973 136.094,331.973 137.5,331.5 Z"/></g>
<g><path style="opacity:0.855" fill="#f79795" d="M 208.5,331.5 C 209.871,333.936 210.871,336.603 211.5,339.5C 209.345,337.383 208.345,334.716 208.5,331.5 Z"/></g>
<g><path style="opacity:0.863" fill="#ee978e" d="M 343.5,333.5 C 345.256,334.552 345.923,336.219 345.5,338.5C 344.463,337.07 343.796,335.403 343.5,333.5 Z"/></g>
<g><path style="opacity:1" fill="#f07570" d="M 443.5,326.5 C 445.346,329.54 446.679,332.873 447.5,336.5C 444.569,333.987 443.235,330.653 443.5,326.5 Z"/></g>
<g><path style="opacity:1" fill="#ef6662" d="M 137.5,333.5 C 137.417,337.686 135.417,340.353 131.5,341.5C 132.584,338.996 133.917,336.663 135.5,334.5C 136.167,334.167 136.833,333.833 137.5,333.5 Z"/></g>
<g><path style="opacity:0.992" fill="#f07e76" d="M 345.5,338.5 C 346.496,338.414 347.329,338.748 348,339.5C 349.739,343.311 350.572,347.311 350.5,351.5C 348.266,347.478 346.599,343.144 345.5,338.5 Z"/></g>
<g><path style="opacity:0.29" fill="#ffbdbe" d="M 131.5,341.5 C 131.573,343.027 130.906,344.027 129.5,344.5C 129.427,342.973 130.094,341.973 131.5,341.5 Z"/></g>
<g><path style="opacity:0.345" fill="#fdb1af" d="M 129.5,344.5 C 129.573,346.027 128.906,347.027 127.5,347.5C 127.427,345.973 128.094,344.973 129.5,344.5 Z"/></g>
<g><path style="opacity:1" fill="#ee6760" d="M 211.5,340.5 C 213.341,342.849 214.674,345.515 215.5,348.5C 214.5,348.5 213.5,348.5 212.5,348.5C 212.167,345.833 211.833,343.167 211.5,340.5 Z"/></g>
<g><path style="opacity:0.686" fill="#feaaa8" d="M 127.5,347.5 C 127.262,349.404 126.262,350.738 124.5,351.5C 124.738,349.596 125.738,348.262 127.5,347.5 Z"/></g>
<g><path style="opacity:0.98" fill="#f29288" d="M 350.5,351.5 C 352.693,353.522 353.693,356.189 353.5,359.5C 351.733,357.208 350.733,354.542 350.5,351.5 Z"/></g>
<g><path style="opacity:0.478" fill="#fcb1b0" d="M 124.5,351.5 C 123.581,354.089 121.914,356.089 119.5,357.5C 120.419,354.911 122.086,352.911 124.5,351.5 Z"/></g>
<g><path style="opacity:1" fill="#f36a63" d="M 215.5,348.5 C 217.341,350.849 218.674,353.515 219.5,356.5C 218.5,356.5 217.5,356.5 216.5,356.5C 216.167,353.833 215.833,351.167 215.5,348.5 Z"/></g>
<g><path style="opacity:0.506" fill="#fb9c98" d="M 219.5,356.5 C 220.906,356.973 221.573,357.973 221.5,359.5C 220.094,359.027 219.427,358.027 219.5,356.5 Z"/></g>
<g><path style="opacity:0.812" fill="#f9a7a5" d="M 221.5,359.5 C 223.914,360.911 225.581,362.911 226.5,365.5C 224.086,364.089 222.419,362.089 221.5,359.5 Z"/></g>
<g><path style="opacity:0.776" fill="#f8a0a1" d="M 119.5,357.5 C 116.769,361.234 113.436,364.234 109.5,366.5C 112.231,362.766 115.564,359.766 119.5,357.5 Z"/></g>
<g><path style="opacity:1" fill="#f26961" d="M 447.5,336.5 C 451.557,345.63 455.39,354.964 459,364.5C 463.543,366.944 468.043,369.277 472.5,371.5C 467.144,369.995 461.811,368.495 456.5,367C 456.833,366.667 457.167,366.333 457.5,366C 456.751,364.266 456.251,362.433 456,360.5C 451.593,353.031 448.759,345.031 447.5,336.5 Z"/></g>
<g><path style="opacity:0.624" fill="#ffa5a0" d="M 109.5,366.5 C 109.027,367.906 108.027,368.573 106.5,368.5C 106.973,367.094 107.973,366.427 109.5,366.5 Z"/></g>
<g><path style="opacity:1" fill="#e56b64" d="M 226.5,365.5 C 228.167,366.5 229.5,367.833 230.5,369.5C 227.858,369.512 226.525,368.179 226.5,365.5 Z"/></g>
<g><path style="opacity:0.6" fill="#fba4a2" d="M 350.5,367.5 C 350.027,368.906 349.027,369.573 347.5,369.5C 347.973,368.094 348.973,367.427 350.5,367.5 Z"/></g>
<g><path style="opacity:0.569" fill="#fea9a5" d="M 106.5,368.5 C 106.027,369.906 105.027,370.573 103.5,370.5C 103.973,369.094 104.973,368.427 106.5,368.5 Z"/></g>
<g><path style="opacity:0.478" fill="#fbabab" d="M 347.5,369.5 C 346.738,371.262 345.404,372.262 343.5,372.5C 344.262,370.738 345.596,369.738 347.5,369.5 Z"/></g>
<g><path style="opacity:0.494" fill="#ffb4b2" d="M 101.5,371.5 C 101.167,372.167 100.833,372.833 100.5,373.5C 99.8333,373.5 99.1667,373.5 98.5,373.5C 98.9731,372.094 99.9731,371.427 101.5,371.5 Z"/></g>
<g><path style="opacity:1" fill="#f68783" d="M 230.5,369.5 C 233.709,371.265 236.709,373.265 239.5,375.5C 235.126,375.445 232.126,373.445 230.5,369.5 Z"/></g>
<g><path style="opacity:0.933" fill="#ec7c77" d="M 472.5,371.5 C 475.485,372.326 478.151,373.659 480.5,375.5C 476.915,375.708 474.249,374.375 472.5,371.5 Z"/></g>
<g><path style="opacity:0.6" fill="#f8aaa8" d="M 98.5,373.5 C 98.0269,374.906 97.0269,375.573 95.5,375.5C 95.9731,374.094 96.9731,373.427 98.5,373.5 Z"/></g>
<g><path style="opacity:0.506" fill="#fba3a0" d="M 343.5,372.5 C 343.167,373.167 342.833,373.833 342.5,374.5C 340.483,375.529 338.483,376.529 336.5,377.5C 338.296,375.1 340.63,373.433 343.5,372.5 Z"/></g>
<g><path style="opacity:0.639" fill="#f79d9c" d="M 336.5,377.5 C 336.027,378.906 335.027,379.573 333.5,379.5C 333.973,378.094 334.973,377.427 336.5,377.5 Z"/></g>
<g><path style="opacity:1" fill="#f67f74" d="M 239.5,375.5 C 244.146,377.486 248.812,379.153 253.5,380.5C 252.167,380.5 250.833,380.5 249.5,380.5C 246.068,380.243 242.734,379.576 239.5,378.5C 239.5,377.5 239.5,376.5 239.5,375.5 Z"/></g>
<g><path style="opacity:0.518" fill="#fab8ad" d="M 333.5,379.5 C 333.027,380.906 332.027,381.573 330.5,381.5C 330.973,380.094 331.973,379.427 333.5,379.5 Z"/></g>
<g><path style="opacity:1" fill="#da4444" d="M 98.5,373.5 C 99.1667,373.5 99.8333,373.5 100.5,373.5C 100.196,374.15 99.8627,374.817 99.5,375.5C 94.9297,377.911 90.263,380.078 85.5,382C 84.5939,383.699 84.2606,385.533 84.5,387.5C 142.167,387.5 199.833,387.5 257.5,387.5C 257.5,385.833 257.5,384.167 257.5,382.5C 254.302,383.036 251.635,382.369 249.5,380.5C 250.833,380.5 252.167,380.5 253.5,380.5C 254.919,381.451 256.585,381.784 258.5,381.5C 258.5,383.833 258.5,386.167 258.5,388.5C 200.167,388.5 141.833,388.5 83.5,388.5C 83.5,386.167 83.5,383.833 83.5,381.5C 87.1225,378.946 91.1225,376.946 95.5,375.5C 97.0269,375.573 98.0269,374.906 98.5,373.5 Z"/></g>
<g><path style="opacity:0.249" fill="#feb5b5" d="M 253.5,380.5 C 255.604,380.201 257.604,380.534 259.5,381.5C 259.782,383.987 259.782,386.653 259.5,389.5C 200.5,389.5 141.5,389.5 82.5,389.5C 82.1936,386.615 82.5269,383.948 83.5,381.5C 83.5,383.833 83.5,386.167 83.5,388.5C 141.833,388.5 200.167,388.5 258.5,388.5C 258.5,386.167 258.5,383.833 258.5,381.5C 256.585,381.784 254.919,381.451 253.5,380.5 Z"/></g>
<g><path style="opacity:0.998" fill="#f38379" d="M 342.5,374.5 C 339.754,377.487 336.587,380.153 333,382.5C 332.505,384.473 332.338,386.473 332.5,388.5C 385.833,388.5 439.167,388.5 492.5,388.5C 492.721,385.721 492.388,383.054 491.5,380.5C 492.496,380.414 493.329,380.748 494,381.5C 494.777,384.429 494.61,387.263 493.5,390C 439.167,390.667 384.833,390.667 330.5,390C 329.183,387.063 329.183,384.23 330.5,381.5C 332.027,381.573 333.027,380.906 333.5,379.5C 335.027,379.573 336.027,378.906 336.5,377.5C 338.483,376.529 340.483,375.529 342.5,374.5 Z"/></g>
</svg>
